#N canvas -919 38 869 713 12;
#X obj 27 21 ctlin;
#X floatatom 27 65 5 0 0 0 - - -;
#X floatatom 43 98 5 0 0 0 - - -;
#X floatatom 61 135 5 0 0 0 - - -;
#X obj 307 24 notein;
#X floatatom 328 105 5 0 0 0 - - -;
#X floatatom 308 57 5 0 0 0 - - -;
#X floatatom 351 153 5 0 0 0 - - -;
#X floatatom 262 219 5 0 0 0 - - -;
#X obj 261 192 ctlin 1 1;
#X floatatom 258 310 5 0 0 0 - - -;
#X obj 258 284 +;
#X obj 292 252 +;
#X obj 537 303 noteout;
#X obj 531 118 notein;
#X floatatom 552 199 5 0 0 0 - - -;
#X floatatom 532 151 5 0 0 0 - - -;
#X floatatom 575 247 5 0 0 0 - - -;
#X text 528 75 Set all Machinewerks CSX 51 Buttons to `Toggle` Mode
;
#X connect 0 0 1 0;
#X connect 0 1 2 0;
#X connect 0 2 3 0;
#X connect 4 0 6 0;
#X connect 4 1 5 0;
#X connect 4 2 7 0;
#X connect 8 0 11 0;
#X connect 8 0 11 1;
#X connect 8 0 12 0;
#X connect 9 0 8 0;
#X connect 11 0 10 0;
#X connect 12 0 11 1;
#X connect 14 0 16 0;
#X connect 14 1 15 0;
#X connect 14 2 17 0;
#X connect 15 0 13 1;
#X connect 16 0 13 0;
#X connect 17 0 13 2;
