#N canvas 557 36 1329 912 12;
#X obj 27 21 ctlin;
#X floatatom 27 65 5 0 0 0 - - -;
#X floatatom 43 98 5 0 0 0 - - -;
#X floatatom 61 135 5 0 0 0 - - -;
#X obj 141 18 notein;
#X floatatom 162 99 5 0 0 0 - - -;
#X floatatom 142 51 5 0 0 0 - - -;
#X floatatom 185 147 5 0 0 0 - - -;
#X obj 267 29 ctlin 1 1;
#X obj 491 163 ctlin 5 1;
#N canvas -1928 -8 1920 1007 (subpatch) 0;
#X obj 99 73 inlet;
#X obj 101 104 cnv 25 552 25 empty empty LED_Display_Small 20 12 0
12 -228856 -66577 0;
#X floatatom 105 135 5 0 127 0 - - -;
#X floatatom 184 371 5 0 0 0 - - -;
#X msg 105 322 0;
#X msg 167 320 1;
#X msg 245 322 2;
#X msg 334 320 3;
#X msg 419 323 4;
#X msg 505 321 5;
#X msg 598 322 6;
#X obj 148 135 hradio 20 1 0 25 empty empty empty 0 -8 0 10 -262144
-1 -1 0;
#X obj 242 7476 noteout;
#X obj 183 433 moses 1;
#X obj 182 725 moses 2;
#X obj 175 1003 moses 3;
#X obj 243 7435 unpack 0 0 0;
#X msg 185 558 66 0 1;
#X msg 180 832 60 127 1;
#X msg 184 584 72 0 1;
#X msg 183 612 78 0 1;
#X msg 350 1101 61 127 1;
#X obj 183 640 send unpack;
#X obj 242 7401 receive unpack;
#X obj 181 931 send unpack;
#X obj 348 1203 send unpack;
#X obj 337 932 send unpack;
#X msg 339 830 61 0 1;
#X msg 337 856 67 0 1;
#X msg 337 882 73 0 1;
#X msg 337 906 79 0 1;
#X obj 525 1819 send unpack;
#X obj 171 1314 moses 4;
#X msg 527 1717 62 127 1;
#X obj 517 1206 send unpack;
#X msg 519 1105 62 0 1;
#X msg 517 1130 68 0 1;
#X msg 517 1156 74 0 1;
#X msg 517 1180 80 0 1;
#X obj 701 1817 send unpack;
#X obj 165 1618 moses 5;
#X msg 703 1715 63 127 1;
#X obj 689 1527 send unpack;
#X msg 691 1426 63 0 1;
#X msg 689 1451 69 0 1;
#X msg 689 1477 75 0 1;
#X msg 689 1501 81 0 1;
#X obj 335 635 send unpack;
#X msg 337 533 61 0 1;
#X msg 335 559 67 0 1;
#X msg 335 585 73 0 1;
#X msg 335 609 79 0 1;
#X obj 495 634 send unpack;
#X msg 497 532 62 0 1;
#X msg 495 558 68 0 1;
#X msg 495 584 74 0 1;
#X msg 495 608 80 0 1;
#X obj 666 635 send unpack;
#X msg 668 534 63 0 1;
#X msg 666 559 69 0 1;
#X msg 666 585 75 0 1;
#X msg 666 609 81 0 1;
#X obj 843 636 send unpack;
#X obj 1004 637 send unpack;
#X msg 845 535 64 0 1;
#X msg 843 560 70 0 1;
#X msg 843 586 76 0 1;
#X msg 843 610 82 0 1;
#X msg 1006 536 65 0 1;
#X msg 1004 561 71 0 1;
#X msg 1004 587 77 0 1;
#X msg 1004 611 83 0 1;
#X obj 504 934 send unpack;
#X msg 506 832 62 0 1;
#X msg 504 858 68 0 1;
#X msg 504 884 74 0 1;
#X msg 504 908 80 0 1;
#X obj 675 935 send unpack;
#X msg 677 834 63 0 1;
#X msg 675 859 69 0 1;
#X msg 675 885 75 0 1;
#X msg 675 909 81 0 1;
#X obj 849 935 send unpack;
#X obj 1006 940 send unpack;
#X msg 851 834 64 0 1;
#X msg 849 859 70 0 1;
#X msg 849 885 76 0 1;
#X msg 849 909 82 0 1;
#X msg 1008 839 65 0 1;
#X msg 1006 864 71 0 1;
#X msg 1006 890 77 0 1;
#X msg 1006 914 83 0 1;
#X msg 172 1105 60 127 1;
#X obj 173 1204 send unpack;
#X obj 680 1208 send unpack;
#X msg 682 1107 63 0 1;
#X msg 680 1132 69 0 1;
#X msg 680 1158 75 0 1;
#X msg 680 1182 81 0 1;
#X obj 868 1821 send unpack;
#X obj 1034 1824 send unpack;
#X msg 870 1720 64 0 1;
#X msg 868 1745 70 0 1;
#X msg 868 1771 76 0 1;
#X msg 868 1795 82 0 1;
#X msg 1036 1723 65 0 1;
#X msg 1034 1748 71 0 1;
#X msg 1034 1774 77 0 1;
#X msg 1034 1798 83 0 1;
#X msg 342 1718 61 127 1;
#X obj 340 1820 send unpack;
#X msg 165 1722 60 127 1;
#X obj 166 1821 send unpack;
#X obj 851 1207 send unpack;
#X obj 1022 1211 send unpack;
#X msg 853 1106 64 0 1;
#X msg 851 1131 70 0 1;
#X msg 851 1157 76 0 1;
#X msg 851 1181 82 0 1;
#X msg 1024 1110 65 0 1;
#X msg 1022 1135 71 0 1;
#X msg 1022 1161 77 0 1;
#X msg 1022 1185 83 0 1;
#X obj 522 1521 send unpack;
#X msg 524 1419 62 127 1;
#X msg 350 1417 61 127 1;
#X obj 348 1519 send unpack;
#X msg 166 1422 60 127 1;
#X obj 167 1521 send unpack;
#X obj 861 1522 send unpack;
#X obj 1032 1521 send unpack;
#X msg 863 1421 64 0 1;
#X msg 861 1446 70 0 1;
#X msg 861 1472 76 0 1;
#X msg 861 1496 82 0 1;
#X msg 1034 1420 65 0 1;
#X msg 1032 1445 71 0 1;
#X msg 1032 1471 77 0 1;
#X msg 1032 1495 83 0 1;
#X obj 527 2111 send unpack;
#X msg 529 2009 62 127 1;
#X obj 705 2112 send unpack;
#X msg 707 2010 63 127 1;
#X obj 873 2117 send unpack;
#X obj 1029 2117 send unpack;
#X msg 1031 2016 65 0 1;
#X msg 1029 2041 71 0 1;
#X msg 1029 2067 77 0 1;
#X msg 1029 2091 83 0 1;
#X msg 343 2005 61 127 1;
#X obj 341 2107 send unpack;
#X msg 169 2008 60 127 1;
#X obj 170 2107 send unpack;
#X obj 169 1905 moses 6;
#X msg 875 2016 64 127 1;
#X obj 530 2380 send unpack;
#X msg 532 2278 62 127 1;
#X obj 706 2379 send unpack;
#X msg 708 2277 63 127 1;
#X obj 867 2385 send unpack;
#X obj 1034 2385 send unpack;
#X msg 345 2279 61 127 1;
#X obj 343 2381 send unpack;
#X obj 175 2386 send unpack;
#X msg 869 2284 64 127 1;
#X obj 174 2183 moses 7;
#X msg 1036 2284 65 127 1;
#X msg 174 2287 60 127 1;
#X msg 681 322 7;
#X msg 766 323 8;
#X msg 851 328 9;
#X msg 935 328 10;
#X msg 1035 328 11;
#X msg 181 880 72 0 1;
#X msg 181 904 78 0 1;
#X msg 184 532 60 0 1;
#X msg 173 1153 72 0 1;
#X msg 173 1177 78 0 1;
#X msg 348 1153 73 0 1;
#X msg 348 1177 79 0 1;
#X msg 167 1470 72 0 1;
#X msg 167 1494 78 0 1;
#X msg 348 1469 73 0 1;
#X msg 348 1493 79 0 1;
#X msg 522 1471 74 0 1;
#X msg 522 1495 80 0 1;
#X msg 166 1770 72 0 1;
#X msg 166 1794 78 0 1;
#X msg 340 1770 73 0 1;
#X msg 340 1794 79 0 1;
#X msg 525 1769 74 0 1;
#X msg 525 1793 80 0 1;
#X msg 701 1767 75 0 1;
#X msg 701 1791 81 0 1;
#X msg 170 2056 72 0 1;
#X msg 170 2080 78 0 1;
#X msg 341 2057 73 0 1;
#X msg 341 2081 79 0 1;
#X msg 527 2061 74 0 1;
#X msg 527 2085 80 0 1;
#X msg 706 2062 75 0 1;
#X msg 705 2086 81 0 1;
#X msg 873 2067 76 0 1;
#X msg 873 2091 82 0 1;
#X msg 867 2335 76 0 1;
#X msg 867 2359 82 0 1;
#X msg 1034 2359 83 0 1;
#X msg 1034 2335 77 0 1;
#X msg 706 2353 81 0 1;
#X msg 706 2329 75 0 1;
#X msg 530 2330 74 0 1;
#X msg 530 2354 80 0 1;
#X msg 343 2331 73 0 1;
#X msg 343 2355 79 0 1;
#X msg 174 2335 72 0 1;
#X msg 175 2359 78 0 1;
#X obj 536 2673 send unpack;
#X msg 538 2571 62 127 1;
#X obj 712 2672 send unpack;
#X msg 714 2570 63 127 1;
#X obj 873 2678 send unpack;
#X obj 1040 2678 send unpack;
#X msg 351 2572 61 127 1;
#X obj 349 2674 send unpack;
#X msg 181 2604 66 127 1;
#X obj 181 2679 send unpack;
#X msg 875 2577 64 127 1;
#X msg 1042 2577 65 127 1;
#X msg 180 2580 60 127 1;
#X msg 873 2628 76 0 1;
#X msg 873 2652 82 0 1;
#X msg 1040 2652 83 0 1;
#X msg 1040 2628 77 0 1;
#X msg 712 2646 81 0 1;
#X msg 712 2622 75 0 1;
#X msg 536 2623 74 0 1;
#X msg 536 2647 80 0 1;
#X msg 349 2624 73 0 1;
#X msg 349 2648 79 0 1;
#X obj 180 2476 moses 8;
#X obj 538 2949 send unpack;
#X msg 540 2847 62 127 1;
#X obj 714 2948 send unpack;
#X msg 716 2846 63 127 1;
#X obj 875 2954 send unpack;
#X obj 1042 2954 send unpack;
#X msg 353 2848 61 127 1;
#X msg 351 2874 67 127 1;
#X obj 351 2950 send unpack;
#X msg 183 2880 66 127 1;
#X obj 183 2955 send unpack;
#X msg 877 2853 64 127 1;
#X msg 1044 2853 65 127 1;
#X msg 182 2856 60 127 1;
#X msg 875 2904 76 0 1;
#X msg 875 2928 82 0 1;
#X msg 1042 2928 83 0 1;
#X msg 1042 2904 77 0 1;
#X msg 714 2922 81 0 1;
#X msg 714 2898 75 0 1;
#X msg 538 2899 74 0 1;
#X msg 538 2923 80 0 1;
#X obj 182 2752 moses 9;
#X obj 544 3215 send unpack;
#X msg 546 3113 62 127 1;
#X msg 544 3139 68 127 1;
#X obj 720 3214 send unpack;
#X msg 722 3112 63 127 1;
#X obj 881 3220 send unpack;
#X obj 1048 3220 send unpack;
#X msg 359 3114 61 127 1;
#X msg 357 3140 67 127 1;
#X obj 357 3216 send unpack;
#X msg 189 3146 66 127 1;
#X obj 189 3221 send unpack;
#X msg 883 3119 64 127 1;
#X msg 1050 3119 65 127 1;
#X msg 188 3122 60 127 1;
#X msg 881 3170 76 0 1;
#X msg 881 3194 82 0 1;
#X msg 1048 3194 83 0 1;
#X msg 1048 3170 77 0 1;
#X msg 720 3188 81 0 1;
#X msg 720 3164 75 0 1;
#X obj 188 3018 moses 10;
#X obj 547 3482 send unpack;
#X msg 549 3380 62 127 1;
#X msg 547 3406 68 127 1;
#X obj 723 3481 send unpack;
#X msg 725 3379 63 127 1;
#X msg 723 3405 69 127 1;
#X obj 884 3487 send unpack;
#X obj 1051 3487 send unpack;
#X msg 362 3381 61 127 1;
#X msg 360 3407 67 127 1;
#X obj 360 3483 send unpack;
#X msg 192 3413 66 127 1;
#X obj 192 3488 send unpack;
#X msg 886 3386 64 127 1;
#X msg 1053 3386 65 127 1;
#X msg 191 3389 60 127 1;
#X msg 884 3437 76 0 1;
#X msg 884 3461 82 0 1;
#X msg 1051 3461 83 0 1;
#X msg 1051 3437 77 0 1;
#X obj 192 3286 moses 11;
#X obj 551 3773 send unpack;
#X msg 553 3671 62 127 1;
#X msg 551 3697 68 127 1;
#X obj 727 3772 send unpack;
#X msg 729 3670 63 127 1;
#X msg 727 3696 69 127 1;
#X obj 888 3778 send unpack;
#X obj 1055 3778 send unpack;
#X msg 366 3672 61 127 1;
#X msg 364 3698 67 127 1;
#X obj 364 3774 send unpack;
#X msg 196 3704 66 127 1;
#X obj 196 3779 send unpack;
#X msg 890 3677 64 127 1;
#X msg 888 3702 70 127 1;
#X msg 1057 3677 65 127 1;
#X msg 195 3680 60 127 1;
#X msg 1055 3752 83 0 1;
#X msg 1055 3728 77 0 1;
#X obj 196 3577 moses 12;
#X obj 559 4060 send unpack;
#X msg 561 3958 62 127 1;
#X msg 559 3984 68 127 1;
#X obj 735 4059 send unpack;
#X msg 737 3957 63 127 1;
#X msg 735 3983 69 127 1;
#X obj 896 4065 send unpack;
#X obj 1063 4065 send unpack;
#X msg 374 3959 61 127 1;
#X msg 372 3985 67 127 1;
#X obj 372 4061 send unpack;
#X msg 204 3991 66 127 1;
#X obj 204 4066 send unpack;
#X msg 898 3964 64 127 1;
#X msg 896 3989 70 127 1;
#X msg 1065 3964 65 127 1;
#X msg 1063 3989 71 127 1;
#X msg 203 3967 60 127 1;
#X obj 204 3864 moses 13;
#X msg 1129 327 12;
#X msg 1216 328 13;
#X msg 1307 330 14;
#X msg 1397 332 15;
#X msg 1480 332 16;
#X msg 1563 334 17;
#X msg 1643 334 18;
#X msg 1728 336 19;
#X msg 1812 337 20;
#X msg 1890 337 21;
#X msg 1967 338 22;
#X msg 2044 339 23;
#X msg 2100 339 24;
#X obj 103 279 moses 6;
#X obj 174 279 moses 11;
#X obj 253 280 moses 16;
#X obj 337 282 moses 21;
#X obj 419 287 moses 26;
#X obj 508 286 moses 31;
#X obj 599 285 moses 36;
#X obj 682 287 moses 41;
#X obj 765 287 moses 46;
#X obj 848 289 moses 51;
#X obj 937 289 moses 56;
#X obj 1034 288 moses 61;
#X obj 1128 287 moses 66;
#X obj 1215 289 moses 71;
#X obj 1306 290 moses 76;
#X obj 1399 293 moses 81;
#X obj 1479 292 moses 86;
#X obj 1561 294 moses 91;
#X obj 1642 294 moses 96;
#X obj 1727 296 moses 101;
#X obj 1811 297 moses 106;
#X obj 1889 297 moses 111;
#X obj 1966 298 moses 116;
#X obj 2043 299 moses 121;
#X msg 181 856 66 0 1;
#X obj 183 459 send lds-moses-1;
#X obj 184 504 receive lds-moses-1;
#X obj 338 505 receive lds-moses-1;
#X obj 498 504 receive lds-moses-1;
#X obj 671 504 receive lds-moses-1;
#X obj 847 505 receive lds-moses-1;
#X obj 1008 506 receive lds-moses-1;
#X obj 182 753 send lds-moses-2;
#X obj 178 805 receive lds-moses-2;
#X obj 340 802 receive lds-moses-2;
#X obj 507 804 receive lds-moses-2;
#X obj 679 804 receive lds-moses-2;
#X obj 853 804 receive lds-moses-2;
#X obj 1010 809 receive lds-moses-2;
#X obj 175 1031 send lds-moses-3;
#X obj 170 1078 receive lds-moses-3;
#X obj 348 1077 receive lds-moses-3;
#X obj 521 1075 receive lds-moses-3;
#X obj 684 1078 receive lds-moses-3;
#X obj 855 1076 receive lds-moses-3;
#X obj 1026 1080 receive lds-moses-3;
#X obj 171 1345 send lds-moses-4;
#X obj 164 1395 receive lds-moses-4;
#X obj 348 1394 receive lds-moses-4;
#X obj 523 1393 receive lds-moses-4;
#X obj 692 1396 receive lds-moses-4;
#X obj 865 1391 receive lds-moses-4;
#X obj 1037 1390 receive lds-moses-4;
#X obj 165 1649 send lds-moses-5;
#X obj 163 1695 receive lds-moses-5;
#X obj 340 1694 receive lds-moses-5;
#X obj 526 1691 receive lds-moses-5;
#X obj 702 1689 receive lds-moses-5;
#X obj 872 1690 receive lds-moses-5;
#X obj 1038 1693 receive lds-moses-5;
#X obj 169 1935 send lds-moses-6;
#X obj 167 1981 receive lds-moses-6;
#X obj 341 1981 receive lds-moses-6;
#X obj 528 1983 receive lds-moses-6;
#X obj 706 1984 receive lds-moses-6;
#X obj 877 1986 receive lds-moses-6;
#X obj 1033 1986 receive lds-moses-6;
#X obj 174 2214 send lds-moses-7;
#X obj 172 2260 receive lds-moses-7;
#X obj 343 2255 receive lds-moses-7;
#X obj 531 2252 receive lds-moses-7;
#X obj 707 2251 receive lds-moses-7;
#X obj 871 2254 receive lds-moses-7;
#X obj 1038 2254 receive lds-moses-7;
#X obj 180 2507 send lds-moses-8;
#X obj 178 2553 receive lds-moses-8;
#X obj 349 2548 receive lds-moses-8;
#X obj 537 2545 receive lds-moses-8;
#X obj 713 2544 receive lds-moses-8;
#X obj 877 2547 receive lds-moses-8;
#X obj 1044 2547 receive lds-moses-8;
#X obj 182 2783 send lds-moses-9;
#X obj 180 2829 receive lds-moses-9;
#X obj 351 2824 receive lds-moses-9;
#X obj 539 2821 receive lds-moses-9;
#X obj 715 2820 receive lds-moses-9;
#X obj 880 2823 receive lds-moses-9;
#X obj 1046 2823 receive lds-moses-9;
#X obj 188 3049 send lds-moses-10;
#X obj 186 3095 receive lds-moses-10;
#X obj 357 3090 receive lds-moses-10;
#X obj 545 3087 receive lds-moses-10;
#X obj 721 3086 receive lds-moses-10;
#X obj 886 3089 receive lds-moses-10;
#X obj 1052 3089 receive lds-moses-10;
#X obj 191 3316 send lds-moses-11;
#X obj 189 3362 receive lds-moses-11;
#X obj 360 3357 receive lds-moses-11;
#X obj 548 3354 receive lds-moses-11;
#X obj 724 3353 receive lds-moses-11;
#X obj 889 3356 receive lds-moses-11;
#X obj 1055 3356 receive lds-moses-11;
#X obj 195 3607 send lds-moses-12;
#X obj 193 3653 receive lds-moses-12;
#X obj 364 3648 receive lds-moses-12;
#X obj 552 3645 receive lds-moses-12;
#X obj 728 3644 receive lds-moses-12;
#X obj 893 3647 receive lds-moses-12;
#X obj 1059 3647 receive lds-moses-12;
#X obj 204 3894 send lds-moses-13;
#X obj 201 3940 receive lds-moses-13;
#X obj 372 3935 receive lds-moses-13;
#X obj 560 3932 receive lds-moses-13;
#X obj 736 3931 receive lds-moses-13;
#X obj 901 3934 receive lds-moses-13;
#X obj 1067 3934 receive lds-moses-13;
#X msg 173 1129 66 0 1;
#X msg 348 1127 67 0 1;
#X msg 167 1446 66 0 1;
#X msg 348 1443 67 0 1;
#X msg 522 1445 68 0 1;
#X msg 166 1746 66 0 1;
#X msg 340 1744 67 0 1;
#X msg 525 1743 68 0 1;
#X msg 701 1741 69 0 1;
#X msg 170 2032 66 0 1;
#X msg 341 2031 67 0 1;
#X msg 527 2035 68 0 1;
#X msg 705 2036 69 0 1;
#X msg 873 2041 70 0 1;
#X msg 175 2311 66 0 1;
#X msg 343 2305 67 0 1;
#X msg 530 2304 68 0 1;
#X msg 706 2303 69 0 1;
#X msg 867 2309 70 0 1;
#X msg 1034 2309 71 0 1;
#X msg 180 2628 72 0 1;
#X msg 348 2598 67 0 1;
#X msg 536 2597 68 0 1;
#X msg 712 2596 69 0 1;
#X msg 873 2602 70 0 1;
#X msg 1040 2602 71 0 1;
#X msg 182 2904 72 0 1;
#X msg 183 2928 78 0 1;
#X msg 351 2900 73 0 1;
#X msg 351 2924 79 0 1;
#X msg 538 2873 68 0 1;
#X msg 714 2872 69 0 1;
#X msg 875 2878 70 0 1;
#X msg 1042 2878 71 0 1;
#X msg 188 3170 72 0 1;
#X msg 189 3194 78 0 1;
#X msg 357 3190 79 0 1;
#X msg 357 3166 73 0 1;
#X msg 544 3165 74 0 1;
#X msg 544 3189 80 0 1;
#X msg 720 3138 69 0 1;
#X msg 881 3144 70 0 1;
#X msg 1048 3144 71 0 1;
#X msg 192 3461 78 0 1;
#X msg 191 3437 72 0 1;
#X msg 360 3457 79 0 1;
#X msg 360 3433 73 0 1;
#X msg 547 3456 80 0 1;
#X msg 547 3432 74 0 1;
#X msg 723 3455 81 0 1;
#X msg 723 3431 75 0 1;
#X msg 884 3411 70 0 1;
#X msg 1051 3411 71 0 1;
#X msg 195 3728 72 0 1;
#X msg 196 3752 78 0 1;
#X msg 364 3724 73 0 1;
#X msg 364 3748 79 0 1;
#X msg 551 3723 74 0 1;
#X msg 551 3747 80 0 1;
#X msg 727 3722 75 0 1;
#X msg 727 3746 81 0 1;
#X msg 888 3728 76 0 1;
#X msg 888 3752 82 0 1;
#X msg 1055 3702 71 0 1;
#X msg 203 4015 72 0 1;
#X msg 204 4039 78 0 1;
#X msg 372 4035 79 0 1;
#X msg 372 4011 73 0 1;
#X msg 559 4010 74 0 1;
#X msg 559 4034 80 0 1;
#X msg 735 4009 75 0 1;
#X msg 735 4033 81 0 1;
#X msg 896 4015 76 0 1;
#X msg 896 4039 82 0 1;
#X msg 1063 4015 77 0 1;
#X msg 1063 4039 83 0 1;
#X msg 181 2652 78 0 1;
#X obj 559 4322 send unpack;
#X msg 561 4220 62 127 1;
#X msg 559 4246 68 127 1;
#X obj 735 4321 send unpack;
#X msg 737 4219 63 127 1;
#X msg 735 4245 69 127 1;
#X obj 896 4327 send unpack;
#X obj 1063 4327 send unpack;
#X msg 374 4221 61 127 1;
#X msg 372 4247 67 127 1;
#X obj 372 4323 send unpack;
#X msg 204 4253 66 127 1;
#X obj 204 4328 send unpack;
#X msg 898 4226 64 127 1;
#X msg 896 4251 70 127 1;
#X msg 1065 4226 65 127 1;
#X msg 1063 4251 71 127 1;
#X msg 203 4229 60 127 1;
#X msg 204 4301 78 0 1;
#X msg 372 4297 79 0 1;
#X msg 372 4273 73 0 1;
#X msg 559 4272 74 0 1;
#X msg 559 4296 80 0 1;
#X msg 735 4271 75 0 1;
#X msg 735 4295 81 0 1;
#X msg 896 4277 76 0 1;
#X msg 896 4301 82 0 1;
#X msg 1063 4277 77 0 1;
#X msg 1063 4301 83 0 1;
#X obj 204 4126 moses 14;
#X obj 204 4156 send lds-moses-14;
#X obj 201 4202 receive lds-moses-14;
#X obj 372 4197 receive lds-moses-14;
#X obj 560 4194 receive lds-moses-14;
#X obj 736 4193 receive lds-moses-14;
#X obj 901 4196 receive lds-moses-14;
#X obj 1067 4196 receive lds-moses-14;
#X msg 203 4277 72 127 1;
#X obj 563 4591 send unpack;
#X msg 565 4489 62 127 1;
#X msg 563 4515 68 127 1;
#X obj 739 4590 send unpack;
#X msg 741 4488 63 127 1;
#X msg 739 4514 69 127 1;
#X obj 900 4596 send unpack;
#X obj 1067 4596 send unpack;
#X msg 378 4490 61 127 1;
#X msg 376 4516 67 127 1;
#X obj 376 4592 send unpack;
#X msg 208 4522 66 127 1;
#X obj 208 4597 send unpack;
#X msg 902 4495 64 127 1;
#X msg 900 4520 70 127 1;
#X msg 1069 4495 65 127 1;
#X msg 1067 4520 71 127 1;
#X msg 207 4498 60 127 1;
#X msg 208 4570 78 0 1;
#X msg 376 4566 79 0 1;
#X msg 563 4541 74 0 1;
#X msg 563 4565 80 0 1;
#X msg 739 4540 75 0 1;
#X msg 739 4564 81 0 1;
#X msg 900 4546 76 0 1;
#X msg 900 4570 82 0 1;
#X msg 1067 4546 77 0 1;
#X msg 1067 4570 83 0 1;
#X msg 207 4546 72 127 1;
#X obj 208 4395 moses 15;
#X obj 209 4425 send lds-moses-15;
#X obj 205 4471 receive lds-moses-15;
#X obj 376 4466 receive lds-moses-15;
#X obj 564 4463 receive lds-moses-15;
#X obj 740 4462 receive lds-moses-15;
#X obj 905 4465 receive lds-moses-15;
#X obj 1071 4465 receive lds-moses-15;
#X msg 376 4542 73 127 1;
#X obj 570 4858 send unpack;
#X msg 572 4756 62 127 1;
#X msg 570 4782 68 127 1;
#X obj 746 4857 send unpack;
#X msg 748 4755 63 127 1;
#X msg 746 4781 69 127 1;
#X obj 907 4863 send unpack;
#X obj 1074 4863 send unpack;
#X msg 385 4757 61 127 1;
#X msg 383 4783 67 127 1;
#X obj 383 4859 send unpack;
#X msg 215 4789 66 127 1;
#X obj 215 4864 send unpack;
#X msg 909 4762 64 127 1;
#X msg 907 4787 70 127 1;
#X msg 1076 4762 65 127 1;
#X msg 1074 4787 71 127 1;
#X msg 214 4765 60 127 1;
#X msg 215 4837 78 0 1;
#X msg 383 4833 79 0 1;
#X msg 570 4832 80 0 1;
#X msg 746 4807 75 0 1;
#X msg 746 4831 81 0 1;
#X msg 907 4813 76 0 1;
#X msg 907 4837 82 0 1;
#X msg 1074 4813 77 0 1;
#X msg 1074 4837 83 0 1;
#X msg 214 4813 72 127 1;
#X msg 383 4809 73 127 1;
#X obj 215 4662 moses 16;
#X obj 216 4692 send lds-moses-16;
#X obj 212 4738 receive lds-moses-16;
#X obj 383 4733 receive lds-moses-16;
#X obj 571 4730 receive lds-moses-16;
#X obj 747 4729 receive lds-moses-16;
#X obj 912 4732 receive lds-moses-16;
#X obj 1078 4732 receive lds-moses-16;
#X msg 570 4808 74 127 1;
#X obj 577 5120 send unpack;
#X msg 579 5018 62 127 1;
#X msg 577 5044 68 127 1;
#X obj 753 5119 send unpack;
#X msg 755 5017 63 127 1;
#X msg 753 5043 69 127 1;
#X obj 914 5125 send unpack;
#X obj 1081 5125 send unpack;
#X msg 392 5019 61 127 1;
#X msg 390 5045 67 127 1;
#X obj 390 5121 send unpack;
#X msg 222 5051 66 127 1;
#X obj 222 5126 send unpack;
#X msg 916 5024 64 127 1;
#X msg 914 5049 70 127 1;
#X msg 1083 5024 65 127 1;
#X msg 1081 5049 71 127 1;
#X msg 221 5027 60 127 1;
#X msg 222 5099 78 0 1;
#X msg 390 5095 79 0 1;
#X msg 577 5094 80 0 1;
#X msg 753 5093 81 0 1;
#X msg 914 5075 76 0 1;
#X msg 914 5099 82 0 1;
#X msg 1081 5075 77 0 1;
#X msg 1081 5099 83 0 1;
#X msg 221 5075 72 127 1;
#X msg 390 5071 73 127 1;
#X msg 577 5070 74 127 1;
#X obj 222 4924 moses 17;
#X obj 223 4954 send lds-moses-17;
#X obj 219 5000 receive lds-moses-17;
#X obj 390 4995 receive lds-moses-17;
#X obj 578 4992 receive lds-moses-17;
#X obj 755 4991 receive lds-moses-17;
#X obj 919 4994 receive lds-moses-17;
#X obj 1085 4994 receive lds-moses-17;
#X msg 753 5069 75 127 1;
#X obj 584 5396 send unpack;
#X msg 586 5294 62 127 1;
#X msg 584 5320 68 127 1;
#X obj 760 5395 send unpack;
#X msg 762 5293 63 127 1;
#X msg 760 5319 69 127 1;
#X obj 921 5401 send unpack;
#X obj 1088 5401 send unpack;
#X msg 399 5295 61 127 1;
#X msg 397 5321 67 127 1;
#X obj 397 5397 send unpack;
#X msg 229 5327 66 127 1;
#X obj 229 5402 send unpack;
#X msg 923 5300 64 127 1;
#X msg 921 5325 70 127 1;
#X msg 1090 5300 65 127 1;
#X msg 1088 5325 71 127 1;
#X msg 228 5303 60 127 1;
#X msg 229 5375 78 0 1;
#X msg 397 5371 79 0 1;
#X msg 584 5370 80 0 1;
#X msg 760 5369 81 0 1;
#X msg 921 5375 82 0 1;
#X msg 1088 5351 77 0 1;
#X msg 1088 5375 83 0 1;
#X msg 228 5351 72 127 1;
#X msg 397 5347 73 127 1;
#X msg 584 5346 74 127 1;
#X msg 760 5345 75 127 1;
#X obj 229 5200 moses 18;
#X obj 230 5230 send lds-moses-18;
#X obj 226 5276 receive lds-moses-18;
#X obj 397 5271 receive lds-moses-18;
#X obj 585 5268 receive lds-moses-18;
#X obj 762 5267 receive lds-moses-18;
#X obj 926 5270 receive lds-moses-18;
#X obj 1092 5270 receive lds-moses-18;
#X msg 921 5351 76 127 1;
#X obj 587 5674 send unpack;
#X msg 589 5572 62 127 1;
#X msg 587 5598 68 127 1;
#X obj 763 5673 send unpack;
#X msg 765 5571 63 127 1;
#X msg 763 5597 69 127 1;
#X obj 924 5679 send unpack;
#X obj 1091 5679 send unpack;
#X msg 402 5573 61 127 1;
#X msg 400 5599 67 127 1;
#X obj 400 5675 send unpack;
#X msg 232 5605 66 127 1;
#X obj 232 5680 send unpack;
#X msg 926 5578 64 127 1;
#X msg 924 5603 70 127 1;
#X msg 1093 5578 65 127 1;
#X msg 1091 5603 71 127 1;
#X msg 231 5581 60 127 1;
#X msg 232 5653 78 0 1;
#X msg 400 5649 79 0 1;
#X msg 587 5648 80 0 1;
#X msg 763 5647 81 0 1;
#X msg 924 5653 82 0 1;
#X msg 1091 5653 83 0 1;
#X msg 231 5629 72 127 1;
#X msg 400 5625 73 127 1;
#X msg 587 5624 74 127 1;
#X msg 763 5623 75 127 1;
#X msg 924 5629 76 127 1;
#X obj 232 5478 moses 19;
#X obj 233 5508 send lds-moses-19;
#X obj 229 5554 receive lds-moses-19;
#X obj 400 5549 receive lds-moses-19;
#X obj 588 5546 receive lds-moses-19;
#X obj 765 5545 receive lds-moses-19;
#X obj 929 5548 receive lds-moses-19;
#X obj 1095 5548 receive lds-moses-19;
#X msg 1091 5629 77 127 1;
#X obj 591 5941 send unpack;
#X msg 593 5839 62 127 1;
#X msg 591 5865 68 127 1;
#X obj 767 5940 send unpack;
#X msg 769 5838 63 127 1;
#X msg 767 5864 69 127 1;
#X obj 928 5946 send unpack;
#X obj 1095 5946 send unpack;
#X msg 406 5840 61 127 1;
#X msg 404 5866 67 127 1;
#X obj 404 5942 send unpack;
#X msg 236 5872 66 127 1;
#X obj 236 5947 send unpack;
#X msg 930 5845 64 127 1;
#X msg 928 5870 70 127 1;
#X msg 1097 5845 65 127 1;
#X msg 1095 5870 71 127 1;
#X msg 235 5848 60 127 1;
#X msg 404 5916 79 0 1;
#X msg 591 5915 80 0 1;
#X msg 767 5914 81 0 1;
#X msg 928 5920 82 0 1;
#X msg 1095 5920 83 0 1;
#X msg 235 5896 72 127 1;
#X msg 404 5892 73 127 1;
#X msg 591 5891 74 127 1;
#X msg 767 5890 75 127 1;
#X msg 928 5896 76 127 1;
#X msg 1095 5896 77 127 1;
#X obj 236 5745 moses 20;
#X obj 237 5775 send lds-moses-20;
#X obj 233 5821 receive lds-moses-20;
#X obj 404 5816 receive lds-moses-20;
#X obj 592 5813 receive lds-moses-20;
#X obj 769 5812 receive lds-moses-20;
#X obj 933 5815 receive lds-moses-20;
#X obj 1099 5815 receive lds-moses-20;
#X msg 236 5920 78 127 1;
#X obj 591 6211 send unpack;
#X msg 593 6109 62 127 1;
#X msg 591 6135 68 127 1;
#X obj 767 6210 send unpack;
#X msg 769 6108 63 127 1;
#X msg 767 6134 69 127 1;
#X obj 928 6216 send unpack;
#X obj 1095 6216 send unpack;
#X msg 406 6110 61 127 1;
#X msg 404 6136 67 127 1;
#X obj 404 6212 send unpack;
#X msg 236 6142 66 127 1;
#X obj 236 6217 send unpack;
#X msg 930 6115 64 127 1;
#X msg 928 6140 70 127 1;
#X msg 1097 6115 65 127 1;
#X msg 1095 6140 71 127 1;
#X msg 235 6118 60 127 1;
#X msg 591 6185 80 0 1;
#X msg 767 6184 81 0 1;
#X msg 928 6190 82 0 1;
#X msg 1095 6190 83 0 1;
#X msg 235 6166 72 127 1;
#X msg 404 6162 73 127 1;
#X msg 591 6161 74 127 1;
#X msg 767 6160 75 127 1;
#X msg 928 6166 76 127 1;
#X msg 1095 6166 77 127 1;
#X msg 236 6190 78 127 1;
#X obj 236 6015 moses 21;
#X obj 237 6045 send lds-moses-21;
#X obj 233 6091 receive lds-moses-21;
#X obj 404 6086 receive lds-moses-21;
#X obj 592 6083 receive lds-moses-21;
#X obj 769 6082 receive lds-moses-21;
#X obj 933 6085 receive lds-moses-21;
#X obj 1099 6085 receive lds-moses-21;
#X msg 404 6186 79 127 1;
#X obj 594 6479 send unpack;
#X msg 596 6377 62 127 1;
#X msg 594 6403 68 127 1;
#X obj 770 6478 send unpack;
#X msg 772 6376 63 127 1;
#X msg 770 6402 69 127 1;
#X obj 931 6484 send unpack;
#X obj 1098 6484 send unpack;
#X msg 409 6378 61 127 1;
#X msg 407 6404 67 127 1;
#X obj 407 6480 send unpack;
#X msg 239 6410 66 127 1;
#X obj 239 6485 send unpack;
#X msg 933 6383 64 127 1;
#X msg 931 6408 70 127 1;
#X msg 1100 6383 65 127 1;
#X msg 1098 6408 71 127 1;
#X msg 238 6386 60 127 1;
#X msg 770 6452 81 0 1;
#X msg 931 6458 82 0 1;
#X msg 1098 6458 83 0 1;
#X msg 238 6434 72 127 1;
#X msg 407 6430 73 127 1;
#X msg 594 6429 74 127 1;
#X msg 770 6428 75 127 1;
#X msg 931 6434 76 127 1;
#X msg 1098 6434 77 127 1;
#X msg 239 6458 78 127 1;
#X msg 407 6454 79 127 1;
#X obj 239 6283 moses 22;
#X obj 240 6313 send lds-moses-22;
#X obj 236 6359 receive lds-moses-22;
#X obj 407 6354 receive lds-moses-22;
#X obj 595 6351 receive lds-moses-22;
#X obj 772 6350 receive lds-moses-22;
#X obj 936 6353 receive lds-moses-22;
#X obj 1102 6353 receive lds-moses-22;
#X msg 594 6453 80 127 1;
#X obj 596 6732 send unpack;
#X msg 598 6630 62 127 1;
#X msg 596 6656 68 127 1;
#X obj 772 6731 send unpack;
#X msg 774 6629 63 127 1;
#X msg 772 6655 69 127 1;
#X obj 933 6737 send unpack;
#X obj 1100 6737 send unpack;
#X msg 411 6631 61 127 1;
#X msg 409 6657 67 127 1;
#X obj 409 6733 send unpack;
#X msg 241 6663 66 127 1;
#X obj 241 6738 send unpack;
#X msg 935 6636 64 127 1;
#X msg 933 6661 70 127 1;
#X msg 1102 6636 65 127 1;
#X msg 1100 6661 71 127 1;
#X msg 240 6639 60 127 1;
#X msg 933 6711 82 0 1;
#X msg 1100 6711 83 0 1;
#X msg 240 6687 72 127 1;
#X msg 409 6683 73 127 1;
#X msg 596 6682 74 127 1;
#X msg 772 6681 75 127 1;
#X msg 933 6687 76 127 1;
#X msg 1100 6687 77 127 1;
#X msg 241 6711 78 127 1;
#X msg 409 6707 79 127 1;
#X msg 596 6706 80 127 1;
#X obj 241 6536 moses 23;
#X obj 242 6566 send lds-moses-23;
#X obj 238 6612 receive lds-moses-23;
#X obj 409 6607 receive lds-moses-23;
#X obj 597 6604 receive lds-moses-23;
#X obj 774 6603 receive lds-moses-23;
#X obj 938 6606 receive lds-moses-23;
#X obj 1104 6606 receive lds-moses-23;
#X msg 772 6705 81 127 1;
#X obj 594 7000 send unpack;
#X msg 596 6898 62 127 1;
#X msg 594 6924 68 127 1;
#X obj 770 6999 send unpack;
#X msg 772 6897 63 127 1;
#X msg 770 6923 69 127 1;
#X obj 931 7005 send unpack;
#X obj 1098 7005 send unpack;
#X msg 409 6899 61 127 1;
#X msg 407 6925 67 127 1;
#X obj 407 7001 send unpack;
#X msg 239 6931 66 127 1;
#X obj 239 7006 send unpack;
#X msg 933 6904 64 127 1;
#X msg 931 6929 70 127 1;
#X msg 1100 6904 65 127 1;
#X msg 1098 6929 71 127 1;
#X msg 238 6907 60 127 1;
#X msg 1098 6979 83 0 1;
#X msg 238 6955 72 127 1;
#X msg 407 6951 73 127 1;
#X msg 594 6950 74 127 1;
#X msg 770 6949 75 127 1;
#X msg 931 6955 76 127 1;
#X msg 1098 6955 77 127 1;
#X msg 239 6979 78 127 1;
#X msg 407 6975 79 127 1;
#X msg 594 6974 80 127 1;
#X msg 770 6973 81 127 1;
#X obj 239 6804 moses 24;
#X obj 241 6834 send lds-moses-24;
#X obj 236 6880 receive lds-moses-24;
#X obj 407 6875 receive lds-moses-24;
#X obj 595 6872 receive lds-moses-24;
#X obj 772 6871 receive lds-moses-24;
#X obj 936 6874 receive lds-moses-24;
#X obj 1102 6874 receive lds-moses-24;
#X msg 931 6979 82 127 1;
#X obj 603 7282 send unpack;
#X msg 605 7180 62 127 1;
#X msg 603 7206 68 127 1;
#X obj 779 7281 send unpack;
#X msg 781 7179 63 127 1;
#X msg 779 7205 69 127 1;
#X obj 940 7287 send unpack;
#X obj 1107 7287 send unpack;
#X msg 418 7181 61 127 1;
#X msg 416 7207 67 127 1;
#X obj 416 7283 send unpack;
#X msg 248 7213 66 127 1;
#X obj 248 7288 send unpack;
#X msg 942 7186 64 127 1;
#X msg 940 7211 70 127 1;
#X msg 1109 7186 65 127 1;
#X msg 1107 7211 71 127 1;
#X msg 247 7189 60 127 1;
#X msg 247 7237 72 127 1;
#X msg 416 7233 73 127 1;
#X msg 603 7232 74 127 1;
#X msg 779 7231 75 127 1;
#X msg 940 7237 76 127 1;
#X msg 1107 7237 77 127 1;
#X msg 248 7261 78 127 1;
#X msg 416 7257 79 127 1;
#X msg 603 7256 80 127 1;
#X msg 779 7255 81 127 1;
#X msg 940 7261 82 127 1;
#X obj 248 7086 moses 25;
#X obj 250 7116 send lds-moses-25;
#X obj 245 7162 receive lds-moses-25;
#X obj 416 7157 receive lds-moses-25;
#X obj 604 7154 receive lds-moses-25;
#X obj 781 7153 receive lds-moses-25;
#X obj 945 7156 receive lds-moses-25;
#X obj 1111 7156 receive lds-moses-25;
#X msg 1107 7261 83 127 1;
#X connect 0 0 2 0;
#X connect 2 0 358 0;
#X connect 3 0 11 0;
#X connect 4 0 3 0;
#X connect 5 0 3 0;
#X connect 6 0 3 0;
#X connect 7 0 3 0;
#X connect 8 0 3 0;
#X connect 9 0 3 0;
#X connect 10 0 3 0;
#X connect 11 0 13 0;
#X connect 13 0 383 0;
#X connect 13 1 14 0;
#X connect 14 0 390 0;
#X connect 14 1 15 0;
#X connect 15 0 397 0;
#X connect 15 1 32 0;
#X connect 16 0 12 0;
#X connect 16 1 12 1;
#X connect 16 2 12 2;
#X connect 17 0 22 0;
#X connect 18 0 24 0;
#X connect 19 0 22 0;
#X connect 20 0 22 0;
#X connect 21 0 25 0;
#X connect 23 0 16 0;
#X connect 27 0 26 0;
#X connect 28 0 26 0;
#X connect 29 0 26 0;
#X connect 30 0 26 0;
#X connect 32 0 404 0;
#X connect 32 1 40 0;
#X connect 33 0 31 0;
#X connect 35 0 34 0;
#X connect 36 0 34 0;
#X connect 37 0 34 0;
#X connect 38 0 34 0;
#X connect 40 0 411 0;
#X connect 40 1 153 0;
#X connect 41 0 39 0;
#X connect 43 0 42 0;
#X connect 44 0 42 0;
#X connect 45 0 42 0;
#X connect 46 0 42 0;
#X connect 48 0 47 0;
#X connect 49 0 47 0;
#X connect 50 0 47 0;
#X connect 51 0 47 0;
#X connect 53 0 52 0;
#X connect 54 0 52 0;
#X connect 55 0 52 0;
#X connect 56 0 52 0;
#X connect 58 0 57 0;
#X connect 59 0 57 0;
#X connect 60 0 57 0;
#X connect 61 0 57 0;
#X connect 64 0 62 0;
#X connect 65 0 62 0;
#X connect 66 0 62 0;
#X connect 67 0 62 0;
#X connect 68 0 63 0;
#X connect 69 0 63 0;
#X connect 70 0 63 0;
#X connect 71 0 63 0;
#X connect 73 0 72 0;
#X connect 74 0 72 0;
#X connect 75 0 72 0;
#X connect 76 0 72 0;
#X connect 78 0 77 0;
#X connect 79 0 77 0;
#X connect 80 0 77 0;
#X connect 81 0 77 0;
#X connect 84 0 82 0;
#X connect 85 0 82 0;
#X connect 86 0 82 0;
#X connect 87 0 82 0;
#X connect 88 0 83 0;
#X connect 89 0 83 0;
#X connect 90 0 83 0;
#X connect 91 0 83 0;
#X connect 92 0 93 0;
#X connect 95 0 94 0;
#X connect 96 0 94 0;
#X connect 97 0 94 0;
#X connect 98 0 94 0;
#X connect 101 0 99 0;
#X connect 102 0 99 0;
#X connect 103 0 99 0;
#X connect 104 0 99 0;
#X connect 105 0 100 0;
#X connect 106 0 100 0;
#X connect 107 0 100 0;
#X connect 108 0 100 0;
#X connect 109 0 110 0;
#X connect 111 0 112 0;
#X connect 115 0 113 0;
#X connect 116 0 113 0;
#X connect 117 0 113 0;
#X connect 118 0 113 0;
#X connect 119 0 114 0;
#X connect 120 0 114 0;
#X connect 121 0 114 0;
#X connect 122 0 114 0;
#X connect 124 0 123 0;
#X connect 125 0 126 0;
#X connect 127 0 128 0;
#X connect 131 0 129 0;
#X connect 132 0 129 0;
#X connect 133 0 129 0;
#X connect 134 0 129 0;
#X connect 135 0 130 0;
#X connect 136 0 130 0;
#X connect 137 0 130 0;
#X connect 138 0 130 0;
#X connect 140 0 139 0;
#X connect 142 0 141 0;
#X connect 145 0 144 0;
#X connect 146 0 144 0;
#X connect 147 0 144 0;
#X connect 148 0 144 0;
#X connect 149 0 150 0;
#X connect 151 0 152 0;
#X connect 153 0 418 0;
#X connect 153 1 165 0;
#X connect 154 0 143 0;
#X connect 156 0 155 0;
#X connect 158 0 157 0;
#X connect 161 0 162 0;
#X connect 164 0 159 0;
#X connect 165 0 425 0;
#X connect 165 1 239 0;
#X connect 166 0 160 0;
#X connect 167 0 163 0;
#X connect 168 0 3 0;
#X connect 169 0 3 0;
#X connect 170 0 3 0;
#X connect 171 0 3 0;
#X connect 172 0 3 0;
#X connect 173 0 24 0;
#X connect 174 0 24 0;
#X connect 175 0 22 0;
#X connect 176 0 93 0;
#X connect 177 0 93 0;
#X connect 178 0 25 0;
#X connect 179 0 25 0;
#X connect 180 0 128 0;
#X connect 181 0 128 0;
#X connect 182 0 126 0;
#X connect 183 0 126 0;
#X connect 184 0 123 0;
#X connect 185 0 123 0;
#X connect 186 0 112 0;
#X connect 187 0 112 0;
#X connect 188 0 110 0;
#X connect 189 0 110 0;
#X connect 190 0 31 0;
#X connect 191 0 31 0;
#X connect 192 0 39 0;
#X connect 193 0 39 0;
#X connect 194 0 152 0;
#X connect 195 0 152 0;
#X connect 196 0 150 0;
#X connect 197 0 150 0;
#X connect 198 0 139 0;
#X connect 199 0 139 0;
#X connect 200 0 141 0;
#X connect 201 0 141 0;
#X connect 202 0 143 0;
#X connect 203 0 143 0;
#X connect 204 0 159 0;
#X connect 205 0 159 0;
#X connect 206 0 160 0;
#X connect 207 0 160 0;
#X connect 208 0 157 0;
#X connect 209 0 157 0;
#X connect 210 0 155 0;
#X connect 211 0 155 0;
#X connect 212 0 162 0;
#X connect 213 0 162 0;
#X connect 214 0 163 0;
#X connect 215 0 163 0;
#X connect 217 0 216 0;
#X connect 219 0 218 0;
#X connect 222 0 223 0;
#X connect 224 0 225 0;
#X connect 226 0 220 0;
#X connect 227 0 221 0;
#X connect 228 0 225 0;
#X connect 229 0 220 0;
#X connect 230 0 220 0;
#X connect 231 0 221 0;
#X connect 232 0 221 0;
#X connect 233 0 218 0;
#X connect 234 0 218 0;
#X connect 235 0 216 0;
#X connect 236 0 216 0;
#X connect 237 0 223 0;
#X connect 238 0 223 0;
#X connect 239 0 432 0;
#X connect 239 1 262 0;
#X connect 241 0 240 0;
#X connect 243 0 242 0;
#X connect 246 0 248 0;
#X connect 247 0 248 0;
#X connect 249 0 250 0;
#X connect 251 0 244 0;
#X connect 252 0 245 0;
#X connect 253 0 250 0;
#X connect 254 0 244 0;
#X connect 255 0 244 0;
#X connect 256 0 245 0;
#X connect 257 0 245 0;
#X connect 258 0 242 0;
#X connect 259 0 242 0;
#X connect 260 0 240 0;
#X connect 261 0 240 0;
#X connect 262 0 439 0;
#X connect 262 1 284 0;
#X connect 264 0 263 0;
#X connect 265 0 263 0;
#X connect 267 0 266 0;
#X connect 270 0 272 0;
#X connect 271 0 272 0;
#X connect 273 0 274 0;
#X connect 275 0 268 0;
#X connect 276 0 269 0;
#X connect 277 0 274 0;
#X connect 278 0 268 0;
#X connect 279 0 268 0;
#X connect 280 0 269 0;
#X connect 281 0 269 0;
#X connect 282 0 266 0;
#X connect 283 0 266 0;
#X connect 284 0 446 0;
#X connect 284 1 305 0;
#X connect 286 0 285 0;
#X connect 287 0 285 0;
#X connect 289 0 288 0;
#X connect 290 0 288 0;
#X connect 293 0 295 0;
#X connect 294 0 295 0;
#X connect 296 0 297 0;
#X connect 298 0 291 0;
#X connect 299 0 292 0;
#X connect 300 0 297 0;
#X connect 301 0 291 0;
#X connect 302 0 291 0;
#X connect 303 0 292 0;
#X connect 304 0 292 0;
#X connect 305 0 453 0;
#X connect 305 1 325 0;
#X connect 307 0 306 0;
#X connect 308 0 306 0;
#X connect 310 0 309 0;
#X connect 311 0 309 0;
#X connect 314 0 316 0;
#X connect 315 0 316 0;
#X connect 317 0 318 0;
#X connect 319 0 312 0;
#X connect 320 0 312 0;
#X connect 321 0 313 0;
#X connect 322 0 318 0;
#X connect 323 0 313 0;
#X connect 324 0 313 0;
#X connect 325 0 460 0;
#X connect 325 1 344 0;
#X connect 327 0 326 0;
#X connect 328 0 326 0;
#X connect 330 0 329 0;
#X connect 331 0 329 0;
#X connect 334 0 336 0;
#X connect 335 0 336 0;
#X connect 337 0 338 0;
#X connect 339 0 332 0;
#X connect 340 0 332 0;
#X connect 341 0 333 0;
#X connect 342 0 333 0;
#X connect 343 0 338 0;
#X connect 344 0 467 0;
#X connect 344 1 580 0;
#X connect 345 0 3 0;
#X connect 346 0 3 0;
#X connect 347 0 3 0;
#X connect 348 0 3 0;
#X connect 349 0 3 0;
#X connect 350 0 3 0;
#X connect 351 0 3 0;
#X connect 352 0 3 0;
#X connect 353 0 3 0;
#X connect 354 0 3 0;
#X connect 355 0 3 0;
#X connect 356 0 3 0;
#X connect 357 0 3 0;
#X connect 358 0 4 0;
#X connect 358 1 359 0;
#X connect 359 0 5 0;
#X connect 359 1 360 0;
#X connect 360 0 6 0;
#X connect 360 1 361 0;
#X connect 361 0 7 0;
#X connect 361 1 362 0;
#X connect 362 0 8 0;
#X connect 362 1 363 0;
#X connect 363 0 9 0;
#X connect 363 1 364 0;
#X connect 364 0 10 0;
#X connect 364 1 365 0;
#X connect 365 0 168 0;
#X connect 365 1 366 0;
#X connect 366 0 169 0;
#X connect 366 1 367 0;
#X connect 367 0 170 0;
#X connect 367 1 368 0;
#X connect 368 0 171 0;
#X connect 368 1 369 0;
#X connect 369 0 172 0;
#X connect 369 1 370 0;
#X connect 370 0 345 0;
#X connect 370 1 371 0;
#X connect 371 0 346 0;
#X connect 371 1 372 0;
#X connect 372 0 347 0;
#X connect 372 1 373 0;
#X connect 373 0 348 0;
#X connect 373 1 374 0;
#X connect 374 0 349 0;
#X connect 374 1 375 0;
#X connect 375 0 350 0;
#X connect 375 1 376 0;
#X connect 376 0 351 0;
#X connect 376 1 377 0;
#X connect 377 0 352 0;
#X connect 377 1 378 0;
#X connect 378 0 353 0;
#X connect 378 1 379 0;
#X connect 379 0 354 0;
#X connect 379 1 380 0;
#X connect 380 0 355 0;
#X connect 380 1 381 0;
#X connect 381 0 356 0;
#X connect 381 1 357 0;
#X connect 382 0 24 0;
#X connect 384 0 175 0;
#X connect 384 0 17 0;
#X connect 384 0 19 0;
#X connect 384 0 20 0;
#X connect 385 0 48 0;
#X connect 385 0 49 0;
#X connect 385 0 50 0;
#X connect 385 0 51 0;
#X connect 386 0 53 0;
#X connect 386 0 54 0;
#X connect 386 0 55 0;
#X connect 386 0 56 0;
#X connect 387 0 58 0;
#X connect 387 0 59 0;
#X connect 387 0 60 0;
#X connect 387 0 61 0;
#X connect 388 0 64 0;
#X connect 388 0 65 0;
#X connect 388 0 66 0;
#X connect 388 0 67 0;
#X connect 389 0 68 0;
#X connect 389 0 69 0;
#X connect 389 0 70 0;
#X connect 389 0 71 0;
#X connect 391 0 18 0;
#X connect 391 0 382 0;
#X connect 391 0 173 0;
#X connect 391 0 174 0;
#X connect 392 0 27 0;
#X connect 392 0 28 0;
#X connect 392 0 29 0;
#X connect 392 0 30 0;
#X connect 393 0 73 0;
#X connect 393 0 74 0;
#X connect 393 0 75 0;
#X connect 393 0 76 0;
#X connect 394 0 78 0;
#X connect 394 0 79 0;
#X connect 394 0 80 0;
#X connect 394 0 81 0;
#X connect 395 0 84 0;
#X connect 395 0 85 0;
#X connect 395 0 86 0;
#X connect 395 0 87 0;
#X connect 396 0 88 0;
#X connect 396 0 89 0;
#X connect 396 0 90 0;
#X connect 396 0 91 0;
#X connect 398 0 92 0;
#X connect 398 0 474 0;
#X connect 398 0 176 0;
#X connect 398 0 177 0;
#X connect 399 0 21 0;
#X connect 399 0 475 0;
#X connect 399 0 178 0;
#X connect 399 0 179 0;
#X connect 400 0 35 0;
#X connect 400 0 36 0;
#X connect 400 0 37 0;
#X connect 400 0 38 0;
#X connect 401 0 95 0;
#X connect 401 0 96 0;
#X connect 401 0 97 0;
#X connect 401 0 98 0;
#X connect 402 0 115 0;
#X connect 402 0 116 0;
#X connect 402 0 117 0;
#X connect 402 0 118 0;
#X connect 403 0 119 0;
#X connect 403 0 120 0;
#X connect 403 0 121 0;
#X connect 403 0 122 0;
#X connect 405 0 127 0;
#X connect 405 0 476 0;
#X connect 405 0 180 0;
#X connect 405 0 181 0;
#X connect 406 0 125 0;
#X connect 406 0 477 0;
#X connect 406 0 182 0;
#X connect 406 0 183 0;
#X connect 407 0 124 0;
#X connect 407 0 478 0;
#X connect 407 0 184 0;
#X connect 407 0 185 0;
#X connect 408 0 43 0;
#X connect 408 0 44 0;
#X connect 408 0 45 0;
#X connect 408 0 46 0;
#X connect 409 0 131 0;
#X connect 409 0 132 0;
#X connect 409 0 133 0;
#X connect 409 0 134 0;
#X connect 410 0 135 0;
#X connect 410 0 136 0;
#X connect 410 0 137 0;
#X connect 410 0 138 0;
#X connect 412 0 111 0;
#X connect 412 0 479 0;
#X connect 412 0 186 0;
#X connect 412 0 187 0;
#X connect 413 0 109 0;
#X connect 413 0 480 0;
#X connect 413 0 188 0;
#X connect 413 0 189 0;
#X connect 414 0 33 0;
#X connect 414 0 481 0;
#X connect 414 0 190 0;
#X connect 414 0 191 0;
#X connect 415 0 41 0;
#X connect 415 0 482 0;
#X connect 415 0 192 0;
#X connect 415 0 193 0;
#X connect 416 0 101 0;
#X connect 416 0 102 0;
#X connect 416 0 103 0;
#X connect 416 0 104 0;
#X connect 417 0 105 0;
#X connect 417 0 106 0;
#X connect 417 0 107 0;
#X connect 417 0 108 0;
#X connect 419 0 151 0;
#X connect 419 0 483 0;
#X connect 419 0 194 0;
#X connect 419 0 195 0;
#X connect 420 0 149 0;
#X connect 420 0 484 0;
#X connect 420 0 196 0;
#X connect 420 0 197 0;
#X connect 421 0 140 0;
#X connect 421 0 485 0;
#X connect 421 0 198 0;
#X connect 421 0 199 0;
#X connect 422 0 142 0;
#X connect 422 0 486 0;
#X connect 422 0 200 0;
#X connect 422 0 201 0;
#X connect 423 0 154 0;
#X connect 423 0 487 0;
#X connect 423 0 202 0;
#X connect 423 0 203 0;
#X connect 424 0 145 0;
#X connect 424 0 146 0;
#X connect 424 0 147 0;
#X connect 424 0 148 0;
#X connect 426 0 488 0;
#X connect 426 0 214 0;
#X connect 426 0 215 0;
#X connect 426 0 167 0;
#X connect 427 0 161 0;
#X connect 427 0 489 0;
#X connect 427 0 212 0;
#X connect 427 0 213 0;
#X connect 428 0 156 0;
#X connect 428 0 490 0;
#X connect 428 0 210 0;
#X connect 428 0 211 0;
#X connect 429 0 158 0;
#X connect 429 0 491 0;
#X connect 429 0 209 0;
#X connect 429 0 208 0;
#X connect 430 0 164 0;
#X connect 430 0 492 0;
#X connect 430 0 204 0;
#X connect 430 0 205 0;
#X connect 431 0 166 0;
#X connect 431 0 493 0;
#X connect 431 0 207 0;
#X connect 431 0 206 0;
#X connect 433 0 224 0;
#X connect 433 0 494 0;
#X connect 433 0 550 0;
#X connect 433 0 228 0;
#X connect 434 0 222 0;
#X connect 434 0 495 0;
#X connect 434 0 237 0;
#X connect 434 0 238 0;
#X connect 435 0 217 0;
#X connect 435 0 496 0;
#X connect 435 0 235 0;
#X connect 435 0 236 0;
#X connect 436 0 219 0;
#X connect 436 0 497 0;
#X connect 436 0 234 0;
#X connect 436 0 233 0;
#X connect 437 0 226 0;
#X connect 437 0 498 0;
#X connect 437 0 229 0;
#X connect 437 0 230 0;
#X connect 438 0 227 0;
#X connect 438 0 499 0;
#X connect 438 0 232 0;
#X connect 438 0 231 0;
#X connect 440 0 249 0;
#X connect 440 0 500 0;
#X connect 440 0 501 0;
#X connect 440 0 253 0;
#X connect 441 0 246 0;
#X connect 441 0 247 0;
#X connect 441 0 502 0;
#X connect 441 0 503 0;
#X connect 442 0 241 0;
#X connect 442 0 504 0;
#X connect 442 0 260 0;
#X connect 442 0 261 0;
#X connect 443 0 243 0;
#X connect 443 0 505 0;
#X connect 443 0 259 0;
#X connect 443 0 258 0;
#X connect 444 0 251 0;
#X connect 444 0 506 0;
#X connect 444 0 254 0;
#X connect 444 0 255 0;
#X connect 445 0 252 0;
#X connect 445 0 507 0;
#X connect 445 0 257 0;
#X connect 445 0 256 0;
#X connect 447 0 273 0;
#X connect 447 0 508 0;
#X connect 447 0 509 0;
#X connect 447 0 277 0;
#X connect 448 0 270 0;
#X connect 448 0 271 0;
#X connect 448 0 511 0;
#X connect 448 0 510 0;
#X connect 449 0 264 0;
#X connect 449 0 265 0;
#X connect 449 0 512 0;
#X connect 449 0 513 0;
#X connect 450 0 267 0;
#X connect 450 0 514 0;
#X connect 450 0 283 0;
#X connect 450 0 282 0;
#X connect 451 0 275 0;
#X connect 451 0 515 0;
#X connect 451 0 278 0;
#X connect 451 0 279 0;
#X connect 452 0 276 0;
#X connect 452 0 516 0;
#X connect 452 0 281 0;
#X connect 452 0 280 0;
#X connect 454 0 296 0;
#X connect 454 0 518 0;
#X connect 454 0 517 0;
#X connect 454 0 300 0;
#X connect 455 0 293 0;
#X connect 455 0 294 0;
#X connect 455 0 520 0;
#X connect 455 0 519 0;
#X connect 456 0 286 0;
#X connect 456 0 287 0;
#X connect 456 0 522 0;
#X connect 456 0 521 0;
#X connect 457 0 289 0;
#X connect 457 0 290 0;
#X connect 457 0 524 0;
#X connect 457 0 523 0;
#X connect 458 0 298 0;
#X connect 458 0 525 0;
#X connect 458 0 301 0;
#X connect 458 0 302 0;
#X connect 459 0 299 0;
#X connect 459 0 526 0;
#X connect 459 0 304 0;
#X connect 459 0 303 0;
#X connect 461 0 317 0;
#X connect 461 0 527 0;
#X connect 461 0 528 0;
#X connect 461 0 322 0;
#X connect 462 0 314 0;
#X connect 462 0 315 0;
#X connect 462 0 529 0;
#X connect 462 0 530 0;
#X connect 463 0 307 0;
#X connect 463 0 308 0;
#X connect 463 0 531 0;
#X connect 463 0 532 0;
#X connect 464 0 310 0;
#X connect 464 0 311 0;
#X connect 464 0 533 0;
#X connect 464 0 534 0;
#X connect 465 0 319 0;
#X connect 465 0 320 0;
#X connect 465 0 535 0;
#X connect 465 0 536 0;
#X connect 466 0 321 0;
#X connect 466 0 537 0;
#X connect 466 0 324 0;
#X connect 466 0 323 0;
#X connect 468 0 337 0;
#X connect 468 0 538 0;
#X connect 468 0 539 0;
#X connect 468 0 343 0;
#X connect 469 0 334 0;
#X connect 469 0 335 0;
#X connect 469 0 541 0;
#X connect 469 0 540 0;
#X connect 470 0 327 0;
#X connect 470 0 328 0;
#X connect 470 0 542 0;
#X connect 470 0 543 0;
#X connect 471 0 330 0;
#X connect 471 0 331 0;
#X connect 471 0 544 0;
#X connect 471 0 545 0;
#X connect 472 0 339 0;
#X connect 472 0 340 0;
#X connect 472 0 546 0;
#X connect 472 0 547 0;
#X connect 473 0 341 0;
#X connect 473 0 342 0;
#X connect 473 0 548 0;
#X connect 473 0 549 0;
#X connect 474 0 93 0;
#X connect 475 0 25 0;
#X connect 476 0 128 0;
#X connect 477 0 126 0;
#X connect 478 0 123 0;
#X connect 479 0 112 0;
#X connect 480 0 110 0;
#X connect 481 0 31 0;
#X connect 482 0 39 0;
#X connect 483 0 152 0;
#X connect 484 0 150 0;
#X connect 485 0 139 0;
#X connect 486 0 141 0;
#X connect 487 0 143 0;
#X connect 488 0 163 0;
#X connect 489 0 162 0;
#X connect 490 0 155 0;
#X connect 491 0 157 0;
#X connect 492 0 159 0;
#X connect 493 0 160 0;
#X connect 494 0 225 0;
#X connect 495 0 223 0;
#X connect 496 0 216 0;
#X connect 497 0 218 0;
#X connect 498 0 220 0;
#X connect 499 0 221 0;
#X connect 500 0 250 0;
#X connect 501 0 250 0;
#X connect 502 0 248 0;
#X connect 503 0 248 0;
#X connect 504 0 240 0;
#X connect 505 0 242 0;
#X connect 506 0 244 0;
#X connect 507 0 245 0;
#X connect 508 0 274 0;
#X connect 509 0 274 0;
#X connect 510 0 272 0;
#X connect 511 0 272 0;
#X connect 512 0 263 0;
#X connect 513 0 263 0;
#X connect 514 0 266 0;
#X connect 515 0 268 0;
#X connect 516 0 269 0;
#X connect 517 0 297 0;
#X connect 518 0 297 0;
#X connect 519 0 295 0;
#X connect 520 0 295 0;
#X connect 521 0 285 0;
#X connect 522 0 285 0;
#X connect 523 0 288 0;
#X connect 524 0 288 0;
#X connect 525 0 291 0;
#X connect 526 0 292 0;
#X connect 527 0 318 0;
#X connect 528 0 318 0;
#X connect 529 0 316 0;
#X connect 530 0 316 0;
#X connect 531 0 306 0;
#X connect 532 0 306 0;
#X connect 533 0 309 0;
#X connect 534 0 309 0;
#X connect 535 0 312 0;
#X connect 536 0 312 0;
#X connect 537 0 313 0;
#X connect 538 0 338 0;
#X connect 539 0 338 0;
#X connect 540 0 336 0;
#X connect 541 0 336 0;
#X connect 542 0 326 0;
#X connect 543 0 326 0;
#X connect 544 0 329 0;
#X connect 545 0 329 0;
#X connect 546 0 332 0;
#X connect 547 0 332 0;
#X connect 548 0 333 0;
#X connect 549 0 333 0;
#X connect 550 0 225 0;
#X connect 552 0 551 0;
#X connect 553 0 551 0;
#X connect 555 0 554 0;
#X connect 556 0 554 0;
#X connect 559 0 561 0;
#X connect 560 0 561 0;
#X connect 562 0 563 0;
#X connect 564 0 557 0;
#X connect 565 0 557 0;
#X connect 566 0 558 0;
#X connect 567 0 558 0;
#X connect 568 0 563 0;
#X connect 569 0 563 0;
#X connect 570 0 561 0;
#X connect 571 0 561 0;
#X connect 572 0 551 0;
#X connect 573 0 551 0;
#X connect 574 0 554 0;
#X connect 575 0 554 0;
#X connect 576 0 557 0;
#X connect 577 0 557 0;
#X connect 578 0 558 0;
#X connect 579 0 558 0;
#X connect 580 0 581 0;
#X connect 580 1 618 0;
#X connect 582 0 562 0;
#X connect 582 0 588 0;
#X connect 582 0 569 0;
#X connect 582 0 568 0;
#X connect 583 0 559 0;
#X connect 583 0 560 0;
#X connect 583 0 571 0;
#X connect 583 0 570 0;
#X connect 584 0 552 0;
#X connect 584 0 553 0;
#X connect 584 0 572 0;
#X connect 584 0 573 0;
#X connect 585 0 555 0;
#X connect 585 0 556 0;
#X connect 585 0 574 0;
#X connect 585 0 575 0;
#X connect 586 0 564 0;
#X connect 586 0 565 0;
#X connect 586 0 576 0;
#X connect 586 0 577 0;
#X connect 587 0 566 0;
#X connect 587 0 567 0;
#X connect 587 0 578 0;
#X connect 587 0 579 0;
#X connect 588 0 563 0;
#X connect 590 0 589 0;
#X connect 591 0 589 0;
#X connect 593 0 592 0;
#X connect 594 0 592 0;
#X connect 597 0 599 0;
#X connect 598 0 599 0;
#X connect 600 0 601 0;
#X connect 602 0 595 0;
#X connect 603 0 595 0;
#X connect 604 0 596 0;
#X connect 605 0 596 0;
#X connect 606 0 601 0;
#X connect 607 0 601 0;
#X connect 608 0 599 0;
#X connect 609 0 589 0;
#X connect 610 0 589 0;
#X connect 611 0 592 0;
#X connect 612 0 592 0;
#X connect 613 0 595 0;
#X connect 614 0 595 0;
#X connect 615 0 596 0;
#X connect 616 0 596 0;
#X connect 617 0 601 0;
#X connect 618 0 619 0;
#X connect 618 1 656 0;
#X connect 620 0 600 0;
#X connect 620 0 617 0;
#X connect 620 0 607 0;
#X connect 620 0 606 0;
#X connect 621 0 597 0;
#X connect 621 0 598 0;
#X connect 621 0 626 0;
#X connect 621 0 608 0;
#X connect 622 0 590 0;
#X connect 622 0 591 0;
#X connect 622 0 609 0;
#X connect 622 0 610 0;
#X connect 623 0 593 0;
#X connect 623 0 594 0;
#X connect 623 0 611 0;
#X connect 623 0 612 0;
#X connect 624 0 602 0;
#X connect 624 0 603 0;
#X connect 624 0 613 0;
#X connect 624 0 614 0;
#X connect 625 0 604 0;
#X connect 625 0 605 0;
#X connect 625 0 615 0;
#X connect 625 0 616 0;
#X connect 626 0 599 0;
#X connect 628 0 627 0;
#X connect 629 0 627 0;
#X connect 631 0 630 0;
#X connect 632 0 630 0;
#X connect 635 0 637 0;
#X connect 636 0 637 0;
#X connect 638 0 639 0;
#X connect 640 0 633 0;
#X connect 641 0 633 0;
#X connect 642 0 634 0;
#X connect 643 0 634 0;
#X connect 644 0 639 0;
#X connect 645 0 639 0;
#X connect 646 0 637 0;
#X connect 647 0 627 0;
#X connect 648 0 630 0;
#X connect 649 0 630 0;
#X connect 650 0 633 0;
#X connect 651 0 633 0;
#X connect 652 0 634 0;
#X connect 653 0 634 0;
#X connect 654 0 639 0;
#X connect 655 0 637 0;
#X connect 656 0 657 0;
#X connect 656 1 694 0;
#X connect 658 0 638 0;
#X connect 658 0 654 0;
#X connect 658 0 645 0;
#X connect 658 0 644 0;
#X connect 659 0 635 0;
#X connect 659 0 636 0;
#X connect 659 0 655 0;
#X connect 659 0 646 0;
#X connect 660 0 628 0;
#X connect 660 0 629 0;
#X connect 660 0 664 0;
#X connect 660 0 647 0;
#X connect 661 0 631 0;
#X connect 661 0 632 0;
#X connect 661 0 648 0;
#X connect 661 0 649 0;
#X connect 662 0 640 0;
#X connect 662 0 641 0;
#X connect 662 0 650 0;
#X connect 662 0 651 0;
#X connect 663 0 642 0;
#X connect 663 0 643 0;
#X connect 663 0 652 0;
#X connect 663 0 653 0;
#X connect 664 0 627 0;
#X connect 666 0 665 0;
#X connect 667 0 665 0;
#X connect 669 0 668 0;
#X connect 670 0 668 0;
#X connect 673 0 675 0;
#X connect 674 0 675 0;
#X connect 676 0 677 0;
#X connect 678 0 671 0;
#X connect 679 0 671 0;
#X connect 680 0 672 0;
#X connect 681 0 672 0;
#X connect 682 0 677 0;
#X connect 683 0 677 0;
#X connect 684 0 675 0;
#X connect 685 0 665 0;
#X connect 686 0 668 0;
#X connect 687 0 671 0;
#X connect 688 0 671 0;
#X connect 689 0 672 0;
#X connect 690 0 672 0;
#X connect 691 0 677 0;
#X connect 692 0 675 0;
#X connect 693 0 665 0;
#X connect 694 0 695 0;
#X connect 694 1 732 0;
#X connect 696 0 676 0;
#X connect 696 0 691 0;
#X connect 696 0 683 0;
#X connect 696 0 682 0;
#X connect 697 0 673 0;
#X connect 697 0 674 0;
#X connect 697 0 692 0;
#X connect 697 0 684 0;
#X connect 698 0 666 0;
#X connect 698 0 667 0;
#X connect 698 0 693 0;
#X connect 698 0 685 0;
#X connect 699 0 669 0;
#X connect 699 0 670 0;
#X connect 699 0 702 0;
#X connect 699 0 686 0;
#X connect 700 0 678 0;
#X connect 700 0 679 0;
#X connect 700 0 687 0;
#X connect 700 0 688 0;
#X connect 701 0 680 0;
#X connect 701 0 681 0;
#X connect 701 0 689 0;
#X connect 701 0 690 0;
#X connect 702 0 668 0;
#X connect 704 0 703 0;
#X connect 705 0 703 0;
#X connect 707 0 706 0;
#X connect 708 0 706 0;
#X connect 711 0 713 0;
#X connect 712 0 713 0;
#X connect 714 0 715 0;
#X connect 716 0 709 0;
#X connect 717 0 709 0;
#X connect 718 0 710 0;
#X connect 719 0 710 0;
#X connect 720 0 715 0;
#X connect 721 0 715 0;
#X connect 722 0 713 0;
#X connect 723 0 703 0;
#X connect 724 0 706 0;
#X connect 725 0 709 0;
#X connect 726 0 710 0;
#X connect 727 0 710 0;
#X connect 728 0 715 0;
#X connect 729 0 713 0;
#X connect 730 0 703 0;
#X connect 731 0 706 0;
#X connect 732 0 733 0;
#X connect 732 1 770 0;
#X connect 734 0 714 0;
#X connect 734 0 728 0;
#X connect 734 0 721 0;
#X connect 734 0 720 0;
#X connect 735 0 711 0;
#X connect 735 0 712 0;
#X connect 735 0 729 0;
#X connect 735 0 722 0;
#X connect 736 0 704 0;
#X connect 736 0 705 0;
#X connect 736 0 730 0;
#X connect 736 0 723 0;
#X connect 737 0 707 0;
#X connect 737 0 708 0;
#X connect 737 0 731 0;
#X connect 737 0 724 0;
#X connect 738 0 716 0;
#X connect 738 0 717 0;
#X connect 738 0 740 0;
#X connect 738 0 725 0;
#X connect 739 0 718 0;
#X connect 739 0 719 0;
#X connect 739 0 726 0;
#X connect 739 0 727 0;
#X connect 740 0 709 0;
#X connect 742 0 741 0;
#X connect 743 0 741 0;
#X connect 745 0 744 0;
#X connect 746 0 744 0;
#X connect 749 0 751 0;
#X connect 750 0 751 0;
#X connect 752 0 753 0;
#X connect 754 0 747 0;
#X connect 755 0 747 0;
#X connect 756 0 748 0;
#X connect 757 0 748 0;
#X connect 758 0 753 0;
#X connect 759 0 753 0;
#X connect 760 0 751 0;
#X connect 761 0 741 0;
#X connect 762 0 744 0;
#X connect 763 0 747 0;
#X connect 764 0 748 0;
#X connect 765 0 753 0;
#X connect 766 0 751 0;
#X connect 767 0 741 0;
#X connect 768 0 744 0;
#X connect 769 0 747 0;
#X connect 770 0 771 0;
#X connect 770 1 808 0;
#X connect 772 0 752 0;
#X connect 772 0 765 0;
#X connect 772 0 759 0;
#X connect 772 0 758 0;
#X connect 773 0 749 0;
#X connect 773 0 750 0;
#X connect 773 0 766 0;
#X connect 773 0 760 0;
#X connect 774 0 742 0;
#X connect 774 0 743 0;
#X connect 774 0 767 0;
#X connect 774 0 761 0;
#X connect 775 0 745 0;
#X connect 775 0 746 0;
#X connect 775 0 768 0;
#X connect 775 0 762 0;
#X connect 776 0 754 0;
#X connect 776 0 755 0;
#X connect 776 0 769 0;
#X connect 776 0 763 0;
#X connect 777 0 756 0;
#X connect 777 0 757 0;
#X connect 777 0 778 0;
#X connect 777 0 764 0;
#X connect 778 0 748 0;
#X connect 780 0 779 0;
#X connect 781 0 779 0;
#X connect 783 0 782 0;
#X connect 784 0 782 0;
#X connect 787 0 789 0;
#X connect 788 0 789 0;
#X connect 790 0 791 0;
#X connect 792 0 785 0;
#X connect 793 0 785 0;
#X connect 794 0 786 0;
#X connect 795 0 786 0;
#X connect 796 0 791 0;
#X connect 797 0 789 0;
#X connect 798 0 779 0;
#X connect 799 0 782 0;
#X connect 800 0 785 0;
#X connect 801 0 786 0;
#X connect 802 0 791 0;
#X connect 803 0 789 0;
#X connect 804 0 779 0;
#X connect 805 0 782 0;
#X connect 806 0 785 0;
#X connect 807 0 786 0;
#X connect 808 0 809 0;
#X connect 808 1 846 0;
#X connect 810 0 790 0;
#X connect 810 0 802 0;
#X connect 810 0 816 0;
#X connect 810 0 796 0;
#X connect 811 0 787 0;
#X connect 811 0 788 0;
#X connect 811 0 803 0;
#X connect 811 0 797 0;
#X connect 812 0 780 0;
#X connect 812 0 781 0;
#X connect 812 0 804 0;
#X connect 812 0 798 0;
#X connect 813 0 783 0;
#X connect 813 0 784 0;
#X connect 813 0 805 0;
#X connect 813 0 799 0;
#X connect 814 0 792 0;
#X connect 814 0 793 0;
#X connect 814 0 806 0;
#X connect 814 0 800 0;
#X connect 815 0 794 0;
#X connect 815 0 795 0;
#X connect 815 0 807 0;
#X connect 815 0 801 0;
#X connect 816 0 791 0;
#X connect 818 0 817 0;
#X connect 819 0 817 0;
#X connect 821 0 820 0;
#X connect 822 0 820 0;
#X connect 825 0 827 0;
#X connect 826 0 827 0;
#X connect 828 0 829 0;
#X connect 830 0 823 0;
#X connect 831 0 823 0;
#X connect 832 0 824 0;
#X connect 833 0 824 0;
#X connect 834 0 829 0;
#X connect 835 0 817 0;
#X connect 836 0 820 0;
#X connect 837 0 823 0;
#X connect 838 0 824 0;
#X connect 839 0 829 0;
#X connect 840 0 827 0;
#X connect 841 0 817 0;
#X connect 842 0 820 0;
#X connect 843 0 823 0;
#X connect 844 0 824 0;
#X connect 845 0 829 0;
#X connect 846 0 847 0;
#X connect 846 1 884 0;
#X connect 848 0 828 0;
#X connect 848 0 839 0;
#X connect 848 0 845 0;
#X connect 848 0 834 0;
#X connect 849 0 825 0;
#X connect 849 0 826 0;
#X connect 849 0 840 0;
#X connect 849 0 854 0;
#X connect 850 0 818 0;
#X connect 850 0 819 0;
#X connect 850 0 841 0;
#X connect 850 0 835 0;
#X connect 851 0 821 0;
#X connect 851 0 822 0;
#X connect 851 0 842 0;
#X connect 851 0 836 0;
#X connect 852 0 830 0;
#X connect 852 0 831 0;
#X connect 852 0 843 0;
#X connect 852 0 837 0;
#X connect 853 0 832 0;
#X connect 853 0 833 0;
#X connect 853 0 844 0;
#X connect 853 0 838 0;
#X connect 854 0 827 0;
#X connect 856 0 855 0;
#X connect 857 0 855 0;
#X connect 859 0 858 0;
#X connect 860 0 858 0;
#X connect 863 0 865 0;
#X connect 864 0 865 0;
#X connect 866 0 867 0;
#X connect 868 0 861 0;
#X connect 869 0 861 0;
#X connect 870 0 862 0;
#X connect 871 0 862 0;
#X connect 872 0 867 0;
#X connect 873 0 858 0;
#X connect 874 0 861 0;
#X connect 875 0 862 0;
#X connect 876 0 867 0;
#X connect 877 0 865 0;
#X connect 878 0 855 0;
#X connect 879 0 858 0;
#X connect 880 0 861 0;
#X connect 881 0 862 0;
#X connect 882 0 867 0;
#X connect 883 0 865 0;
#X connect 884 0 885 0;
#X connect 884 1 922 0;
#X connect 886 0 866 0;
#X connect 886 0 876 0;
#X connect 886 0 882 0;
#X connect 886 0 872 0;
#X connect 887 0 863 0;
#X connect 887 0 864 0;
#X connect 887 0 877 0;
#X connect 887 0 883 0;
#X connect 888 0 856 0;
#X connect 888 0 857 0;
#X connect 888 0 878 0;
#X connect 888 0 892 0;
#X connect 889 0 859 0;
#X connect 889 0 860 0;
#X connect 889 0 879 0;
#X connect 889 0 873 0;
#X connect 890 0 868 0;
#X connect 890 0 869 0;
#X connect 890 0 880 0;
#X connect 890 0 874 0;
#X connect 891 0 870 0;
#X connect 891 0 871 0;
#X connect 891 0 881 0;
#X connect 891 0 875 0;
#X connect 892 0 855 0;
#X connect 894 0 893 0;
#X connect 895 0 893 0;
#X connect 897 0 896 0;
#X connect 898 0 896 0;
#X connect 901 0 903 0;
#X connect 902 0 903 0;
#X connect 904 0 905 0;
#X connect 906 0 899 0;
#X connect 907 0 899 0;
#X connect 908 0 900 0;
#X connect 909 0 900 0;
#X connect 910 0 905 0;
#X connect 911 0 899 0;
#X connect 912 0 900 0;
#X connect 913 0 905 0;
#X connect 914 0 903 0;
#X connect 915 0 893 0;
#X connect 916 0 896 0;
#X connect 917 0 899 0;
#X connect 918 0 900 0;
#X connect 919 0 905 0;
#X connect 920 0 903 0;
#X connect 921 0 893 0;
#X connect 922 0 923 0;
#X connect 922 1 960 0;
#X connect 924 0 904 0;
#X connect 924 0 913 0;
#X connect 924 0 919 0;
#X connect 924 0 910 0;
#X connect 925 0 901 0;
#X connect 925 0 902 0;
#X connect 925 0 914 0;
#X connect 925 0 920 0;
#X connect 926 0 894 0;
#X connect 926 0 895 0;
#X connect 926 0 915 0;
#X connect 926 0 921 0;
#X connect 927 0 897 0;
#X connect 927 0 898 0;
#X connect 927 0 916 0;
#X connect 927 0 930 0;
#X connect 928 0 906 0;
#X connect 928 0 907 0;
#X connect 928 0 917 0;
#X connect 928 0 911 0;
#X connect 929 0 908 0;
#X connect 929 0 909 0;
#X connect 929 0 918 0;
#X connect 929 0 912 0;
#X connect 930 0 896 0;
#X connect 932 0 931 0;
#X connect 933 0 931 0;
#X connect 935 0 934 0;
#X connect 936 0 934 0;
#X connect 939 0 941 0;
#X connect 940 0 941 0;
#X connect 942 0 943 0;
#X connect 944 0 937 0;
#X connect 945 0 937 0;
#X connect 946 0 938 0;
#X connect 947 0 938 0;
#X connect 948 0 943 0;
#X connect 949 0 938 0;
#X connect 950 0 943 0;
#X connect 951 0 941 0;
#X connect 952 0 931 0;
#X connect 953 0 934 0;
#X connect 954 0 937 0;
#X connect 955 0 938 0;
#X connect 956 0 943 0;
#X connect 957 0 941 0;
#X connect 958 0 931 0;
#X connect 959 0 934 0;
#X connect 960 0 961 0;
#X connect 960 1 998 0;
#X connect 962 0 942 0;
#X connect 962 0 950 0;
#X connect 962 0 956 0;
#X connect 962 0 948 0;
#X connect 963 0 939 0;
#X connect 963 0 940 0;
#X connect 963 0 951 0;
#X connect 963 0 957 0;
#X connect 964 0 932 0;
#X connect 964 0 933 0;
#X connect 964 0 952 0;
#X connect 964 0 958 0;
#X connect 965 0 935 0;
#X connect 965 0 936 0;
#X connect 965 0 953 0;
#X connect 965 0 959 0;
#X connect 966 0 944 0;
#X connect 966 0 945 0;
#X connect 966 0 954 0;
#X connect 966 0 968 0;
#X connect 967 0 946 0;
#X connect 967 0 947 0;
#X connect 967 0 955 0;
#X connect 967 0 949 0;
#X connect 968 0 937 0;
#X connect 970 0 969 0;
#X connect 971 0 969 0;
#X connect 973 0 972 0;
#X connect 974 0 972 0;
#X connect 977 0 979 0;
#X connect 978 0 979 0;
#X connect 980 0 981 0;
#X connect 982 0 975 0;
#X connect 983 0 975 0;
#X connect 984 0 976 0;
#X connect 985 0 976 0;
#X connect 986 0 981 0;
#X connect 987 0 981 0;
#X connect 988 0 979 0;
#X connect 989 0 969 0;
#X connect 990 0 972 0;
#X connect 991 0 975 0;
#X connect 992 0 976 0;
#X connect 993 0 981 0;
#X connect 994 0 979 0;
#X connect 995 0 969 0;
#X connect 996 0 972 0;
#X connect 997 0 975 0;
#X connect 998 0 999 0;
#X connect 1000 0 980 0;
#X connect 1000 0 987 0;
#X connect 1000 0 993 0;
#X connect 1000 0 986 0;
#X connect 1001 0 977 0;
#X connect 1001 0 978 0;
#X connect 1001 0 988 0;
#X connect 1001 0 994 0;
#X connect 1002 0 970 0;
#X connect 1002 0 971 0;
#X connect 1002 0 989 0;
#X connect 1002 0 995 0;
#X connect 1003 0 973 0;
#X connect 1003 0 974 0;
#X connect 1003 0 990 0;
#X connect 1003 0 996 0;
#X connect 1004 0 982 0;
#X connect 1004 0 983 0;
#X connect 1004 0 991 0;
#X connect 1004 0 997 0;
#X connect 1005 0 984 0;
#X connect 1005 0 985 0;
#X connect 1005 0 992 0;
#X connect 1005 0 1006 0;
#X connect 1006 0 976 0;
#X coords 0 -1 1 1 554 61 2 100 100;
#X restore 275 76 pd;
#N canvas -8 -8 1920 1007 (subpatch) 0;
#X obj 99 73 inlet;
#X obj 101 104 cnv 25 132 25 empty empty LED_Numbers_4 20 12 0 12 -228856
-66577 0;
#X floatatom 105 135 5 0 127 0 - - -;
#X floatatom 184 371 5 0 0 0 - - -;
#X msg 105 322 0;
#X msg 167 320 1;
#X msg 245 322 2;
#X msg 334 320 3;
#X msg 419 323 4;
#X obj 148 135 hradio 20 1 0 4 empty empty empty 0 -8 0 10 -262144
-1 -1 0;
#X obj 169 1679 noteout;
#X obj 183 433 moses 1;
#X obj 182 725 moses 2;
#X obj 175 1003 moses 3;
#X obj 170 1638 unpack 0 0 0;
#X obj 183 640 send unpack;
#X obj 169 1604 receive unpack;
#X obj 181 931 send unpack;
#X obj 348 1203 send unpack;
#X obj 337 932 send unpack;
#X msg 337 856 67 0 1;
#X msg 337 882 73 0 1;
#X obj 171 1314 moses 4;
#X obj 517 1206 send unpack;
#X obj 689 1527 send unpack;
#X msg 689 1501 81 0 1;
#X obj 335 635 send unpack;
#X msg 335 559 67 0 1;
#X msg 335 585 73 0 1;
#X obj 495 634 send unpack;
#X obj 666 635 send unpack;
#X msg 668 534 63 0 1;
#X msg 666 585 75 0 1;
#X msg 666 609 81 0 1;
#X obj 843 636 send unpack;
#X obj 1004 637 send unpack;
#X msg 1006 536 65 0 1;
#X msg 1004 561 71 0 1;
#X msg 1004 587 77 0 1;
#X msg 1004 611 83 0 1;
#X obj 504 934 send unpack;
#X obj 675 935 send unpack;
#X msg 675 885 75 0 1;
#X obj 849 935 send unpack;
#X obj 1006 940 send unpack;
#X msg 849 859 70 0 1;
#X msg 1008 839 65 0 1;
#X msg 1006 890 77 0 1;
#X obj 173 1204 send unpack;
#X obj 680 1208 send unpack;
#X msg 680 1132 69 0 1;
#X obj 851 1207 send unpack;
#X obj 1022 1211 send unpack;
#X msg 851 1131 70 0 1;
#X obj 522 1521 send unpack;
#X obj 348 1519 send unpack;
#X obj 167 1521 send unpack;
#X obj 861 1522 send unpack;
#X obj 1032 1521 send unpack;
#X msg 863 1421 64 0 1;
#X msg 1034 1420 65 0 1;
#X msg 1032 1445 71 0 1;
#X msg 1032 1495 83 0 1;
#X msg 348 1469 73 0 1;
#X msg 348 1127 67 0 1;
#X msg 348 1443 67 0 1;
#X obj 103 279 moses 1;
#X obj 174 279 moses 2;
#X obj 253 280 moses 3;
#X obj 337 282 moses 4;
#X obj 183 459 send ln4-moses-1;
#X obj 184 504 receive ln4-moses-1;
#X obj 338 505 receive ln4-moses-1;
#X obj 498 504 receive ln4-moses-1;
#X obj 671 504 receive ln4-moses-1;
#X obj 847 505 receive ln4-moses-1;
#X obj 1008 506 receive ln4-moses-1;
#X obj 182 753 send ln4-moses-2;
#X obj 178 805 receive ln4-moses-2;
#X obj 340 802 receive ln4-moses-2;
#X obj 507 804 receive ln4-moses-2;
#X obj 679 804 receive ln4-moses-2;
#X obj 853 804 receive ln4-moses-2;
#X obj 1010 809 receive ln4-moses-2;
#X obj 175 1031 send ln4-moses-3;
#X obj 170 1078 receive ln4-moses-3;
#X obj 348 1077 receive ln4-moses-3;
#X obj 521 1075 receive ln4-moses-3;
#X obj 684 1078 receive ln4-moses-3;
#X obj 855 1076 receive ln4-moses-3;
#X obj 1026 1080 receive ln4-moses-3;
#X obj 171 1345 send ln4-moses-4;
#X obj 164 1395 receive ln4-moses-4;
#X obj 348 1394 receive ln4-moses-4;
#X obj 523 1393 receive ln4-moses-4;
#X obj 692 1396 receive ln4-moses-4;
#X obj 865 1391 receive ln4-moses-4;
#X obj 1037 1390 receive ln4-moses-4;
#X msg 845 535 64 127 1;
#X msg 666 559 69 127 1;
#X msg 843 560 70 127 1;
#X msg 843 586 76 127 1;
#X msg 843 610 82 127 1;
#X msg 851 834 64 127 1;
#X msg 1006 864 71 127 1;
#X msg 849 885 76 127 1;
#X msg 675 909 81 127 1;
#X msg 849 909 82 127 1;
#X msg 1006 914 83 127 1;
#X msg 682 1107 63 127 1;
#X msg 853 1106 64 127 1;
#X msg 1024 1110 65 127 1;
#X msg 1022 1135 71 127 1;
#X msg 1022 1161 77 127 1;
#X msg 1022 1185 83 127 1;
#X msg 851 1181 82 127 1;
#X msg 680 1182 81 127 1;
#X msg 851 1157 76 127 1;
#X msg 675 859 69 0 1;
#X msg 677 834 63 127 1;
#X msg 691 1426 63 127 1;
#X msg 689 1451 69 127 1;
#X msg 861 1446 70 127 1;
#X msg 689 1477 75 127 1;
#X msg 861 1472 76 127 1;
#X msg 861 1496 82 127 1;
#X msg 1032 1471 77 127 1;
#X msg 348 1152 73 0 1;
#X msg 680 1158 75 0 1;
#X msg 184 532 60 0 1;
#X msg 185 558 66 0 1;
#X msg 184 584 72 0 1;
#X msg 183 612 78 0 1;
#X msg 337 533 61 0 1;
#X msg 335 609 79 0 1;
#X msg 497 532 62 0 1;
#X msg 495 558 68 0 1;
#X msg 495 608 80 0 1;
#X msg 495 584 74 0 1;
#X msg 180 832 60 0 1;
#X msg 181 856 66 0 1;
#X msg 181 880 72 0 1;
#X msg 181 904 78 0 1;
#X msg 335 906 79 0 1;
#X msg 339 830 61 0 1;
#X msg 506 832 62 0 1;
#X msg 504 858 68 0 1;
#X msg 504 884 74 0 1;
#X msg 504 908 80 0 1;
#X msg 172 1105 60 0 1;
#X msg 173 1129 66 0 1;
#X msg 173 1153 72 0 1;
#X msg 173 1177 78 0 1;
#X msg 350 1101 61 0 1;
#X msg 348 1177 79 0 1;
#X msg 517 1180 80 0 1;
#X msg 517 1156 74 0 1;
#X msg 517 1130 68 0 1;
#X msg 519 1105 62 0 1;
#X msg 166 1422 60 0 1;
#X msg 167 1446 66 0 1;
#X msg 167 1470 72 0 1;
#X msg 167 1494 78 0 1;
#X msg 348 1493 79 0 1;
#X msg 350 1417 61 0 1;
#X msg 524 1419 62 0 1;
#X msg 522 1445 68 0 1;
#X msg 522 1471 74 0 1;
#X msg 522 1495 80 0 1;
#X connect 0 0 2 0;
#X connect 2 0 66 0;
#X connect 3 0 9 0;
#X connect 4 0 3 0;
#X connect 5 0 3 0;
#X connect 6 0 3 0;
#X connect 7 0 3 0;
#X connect 8 0 3 0;
#X connect 9 0 11 0;
#X connect 11 0 70 0;
#X connect 11 1 12 0;
#X connect 12 0 77 0;
#X connect 12 1 13 0;
#X connect 13 0 84 0;
#X connect 13 1 22 0;
#X connect 14 0 10 0;
#X connect 14 1 10 1;
#X connect 14 2 10 2;
#X connect 16 0 14 0;
#X connect 20 0 19 0;
#X connect 21 0 19 0;
#X connect 22 0 91 0;
#X connect 25 0 24 0;
#X connect 27 0 26 0;
#X connect 28 0 26 0;
#X connect 31 0 30 0;
#X connect 32 0 30 0;
#X connect 33 0 30 0;
#X connect 36 0 35 0;
#X connect 37 0 35 0;
#X connect 38 0 35 0;
#X connect 39 0 35 0;
#X connect 42 0 41 0;
#X connect 45 0 43 0;
#X connect 46 0 44 0;
#X connect 47 0 44 0;
#X connect 50 0 49 0;
#X connect 53 0 51 0;
#X connect 59 0 57 0;
#X connect 60 0 58 0;
#X connect 61 0 58 0;
#X connect 62 0 58 0;
#X connect 63 0 55 0;
#X connect 64 0 18 0;
#X connect 65 0 55 0;
#X connect 66 0 4 0;
#X connect 66 1 67 0;
#X connect 67 0 5 0;
#X connect 67 1 68 0;
#X connect 68 0 6 0;
#X connect 68 1 69 0;
#X connect 69 0 7 0;
#X connect 69 1 8 0;
#X connect 71 0 129 0;
#X connect 71 0 130 0;
#X connect 71 0 131 0;
#X connect 71 0 132 0;
#X connect 72 0 133 0;
#X connect 72 0 27 0;
#X connect 72 0 28 0;
#X connect 72 0 134 0;
#X connect 73 0 135 0;
#X connect 73 0 136 0;
#X connect 73 0 138 0;
#X connect 73 0 137 0;
#X connect 74 0 31 0;
#X connect 74 0 99 0;
#X connect 74 0 32 0;
#X connect 74 0 33 0;
#X connect 75 0 98 0;
#X connect 75 0 100 0;
#X connect 75 0 101 0;
#X connect 75 0 102 0;
#X connect 76 0 36 0;
#X connect 76 0 37 0;
#X connect 76 0 38 0;
#X connect 76 0 39 0;
#X connect 78 0 139 0;
#X connect 78 0 140 0;
#X connect 78 0 141 0;
#X connect 78 0 142 0;
#X connect 79 0 144 0;
#X connect 79 0 20 0;
#X connect 79 0 21 0;
#X connect 79 0 143 0;
#X connect 80 0 145 0;
#X connect 80 0 146 0;
#X connect 80 0 147 0;
#X connect 80 0 148 0;
#X connect 81 0 119 0;
#X connect 81 0 118 0;
#X connect 81 0 42 0;
#X connect 81 0 106 0;
#X connect 82 0 103 0;
#X connect 82 0 45 0;
#X connect 82 0 105 0;
#X connect 82 0 107 0;
#X connect 83 0 46 0;
#X connect 83 0 104 0;
#X connect 83 0 47 0;
#X connect 83 0 108 0;
#X connect 85 0 149 0;
#X connect 85 0 150 0;
#X connect 85 0 151 0;
#X connect 85 0 152 0;
#X connect 86 0 153 0;
#X connect 86 0 64 0;
#X connect 86 0 127 0;
#X connect 86 0 154 0;
#X connect 87 0 158 0;
#X connect 87 0 157 0;
#X connect 87 0 156 0;
#X connect 87 0 155 0;
#X connect 88 0 109 0;
#X connect 88 0 50 0;
#X connect 88 0 128 0;
#X connect 88 0 116 0;
#X connect 89 0 110 0;
#X connect 89 0 53 0;
#X connect 89 0 117 0;
#X connect 89 0 115 0;
#X connect 90 0 111 0;
#X connect 90 0 112 0;
#X connect 90 0 113 0;
#X connect 90 0 114 0;
#X connect 92 0 159 0;
#X connect 92 0 160 0;
#X connect 92 0 161 0;
#X connect 92 0 162 0;
#X connect 93 0 164 0;
#X connect 93 0 65 0;
#X connect 93 0 63 0;
#X connect 93 0 163 0;
#X connect 94 0 165 0;
#X connect 94 0 166 0;
#X connect 94 0 167 0;
#X connect 94 0 168 0;
#X connect 95 0 120 0;
#X connect 95 0 121 0;
#X connect 95 0 123 0;
#X connect 95 0 25 0;
#X connect 96 0 59 0;
#X connect 96 0 122 0;
#X connect 96 0 124 0;
#X connect 96 0 125 0;
#X connect 97 0 60 0;
#X connect 97 0 61 0;
#X connect 97 0 126 0;
#X connect 97 0 62 0;
#X connect 98 0 34 0;
#X connect 99 0 30 0;
#X connect 100 0 34 0;
#X connect 101 0 34 0;
#X connect 102 0 34 0;
#X connect 103 0 43 0;
#X connect 104 0 44 0;
#X connect 105 0 43 0;
#X connect 106 0 41 0;
#X connect 107 0 43 0;
#X connect 108 0 44 0;
#X connect 109 0 49 0;
#X connect 110 0 51 0;
#X connect 111 0 52 0;
#X connect 112 0 52 0;
#X connect 113 0 52 0;
#X connect 114 0 52 0;
#X connect 115 0 51 0;
#X connect 116 0 49 0;
#X connect 117 0 51 0;
#X connect 118 0 41 0;
#X connect 119 0 41 0;
#X connect 120 0 24 0;
#X connect 121 0 24 0;
#X connect 122 0 57 0;
#X connect 123 0 24 0;
#X connect 124 0 57 0;
#X connect 125 0 57 0;
#X connect 126 0 58 0;
#X connect 127 0 18 0;
#X connect 128 0 49 0;
#X connect 129 0 15 0;
#X connect 130 0 15 0;
#X connect 131 0 15 0;
#X connect 132 0 15 0;
#X connect 133 0 26 0;
#X connect 134 0 26 0;
#X connect 135 0 29 0;
#X connect 136 0 29 0;
#X connect 137 0 29 0;
#X connect 138 0 29 0;
#X connect 139 0 17 0;
#X connect 140 0 17 0;
#X connect 141 0 17 0;
#X connect 142 0 17 0;
#X connect 143 0 19 0;
#X connect 144 0 19 0;
#X connect 145 0 40 0;
#X connect 146 0 40 0;
#X connect 147 0 40 0;
#X connect 148 0 40 0;
#X connect 149 0 48 0;
#X connect 150 0 48 0;
#X connect 151 0 48 0;
#X connect 152 0 48 0;
#X connect 153 0 18 0;
#X connect 154 0 18 0;
#X connect 155 0 23 0;
#X connect 156 0 23 0;
#X connect 157 0 23 0;
#X connect 158 0 23 0;
#X connect 159 0 56 0;
#X connect 160 0 56 0;
#X connect 161 0 56 0;
#X connect 162 0 56 0;
#X connect 163 0 55 0;
#X connect 164 0 55 0;
#X connect 165 0 54 0;
#X connect 166 0 54 0;
#X connect 167 0 54 0;
#X connect 168 0 54 0;
#X coords 0 -1 1 1 134 60 2 100 100;
#X restore 491 372 pd;
#N canvas -1928 -8 1920 1007 (subpatch) 0;
#X obj 203 282 inlet;
#X obj 101 104 cnv 25 212 25 empty empty Oscilator 20 12 0 12 -233017
-66577 0;
#X floatatom 246 318 5 0 0 0 - - -;
#X obj 309 597 tabwrite~ waveform;
#X obj 242 507 osc~;
#X floatatom 435 310 5 0 0 0 - - -;
#X floatatom 251 460 5 0 0 0 - - -;
#X floatatom 439 476 5 0 0 0 - - -;
#X obj 439 504 bng 15 250 50 0 empty empty empty 17 7 0 10 -262144
-1 -1;
#X obj 149 516 phasor~;
#X floatatom 737 455 5 0 0 0 - - -;
#N canvas 0 50 951 687 (subpatch) 0;
#X array waveform 1000 float 3;
#A 0 1.39137 1.39317 1.39497 1.39676 1.39856 1.40036 1.40214 1.40393
1.40571 1.4075 1.40929 1.41107 1.41285 1.41462 1.4164 1.41817 1.41995
1.42172 1.42349 1.42525 1.42702 1.42878 1.43054 1.4323 1.43406 1.43582
1.43757 1.43931 1.44106 1.44281 1.44456 1.44631 1.44805 1.44978 1.45152
1.45325 1.45499 1.45672 1.45846 1.46018 1.46191 1.46363 1.46535 1.46707
1.46879 1.47051 1.47222 1.47393 1.47564 1.47734 1.47905 1.48076 1.48247
1.48416 1.48585 1.48755 1.48924 1.49094 1.49263 1.49432 1.496 1.49768
1.49936 1.50104 1.50272 1.5044 1.50607 1.50774 1.5094 1.51107 1.51273
1.5144 1.51606 1.51772 1.51937 1.52102 1.52267 1.52432 1.52597 1.52762
1.52926 1.5309 1.53253 1.53417 1.53581 1.53744 1.53908 1.5407 1.54232
1.54394 1.54556 1.54718 1.5488 1.55042 1.55203 1.55363 1.55524 1.55684
1.55845 1.56006 1.56165 1.56325 1.56484 1.56643 1.56802 1.56961 1.5712
1.57278 1.57435 1.57593 1.5775 1.57908 1.58065 1.58223 1.58379 1.58535
1.58691 1.58847 1.59003 1.59159 1.59314 1.59469 1.59623 1.59777 1.59932
1.60086 1.60241 1.60394 1.60547 1.607 1.60853 1.61005 1.61158 1.61311
1.61463 1.61614 1.61765 1.61916 1.62067 1.62218 1.62369 1.62519 1.62669
1.62818 1.62968 1.63117 1.63267 1.63416 1.63564 1.63712 1.63859 1.64007
1.64155 1.64303 1.6445 1.64596 1.64743 1.64889 1.65035 1.65181 1.65327
1.65472 1.65617 1.65761 1.65906 1.6605 1.66195 1.66339 1.66482 1.66625
1.66768 1.6691 1.67053 1.67196 1.67339 1.6748 1.67621 1.67762 1.67903
1.68044 1.68185 1.68325 1.68465 1.68604 1.68743 1.68882 1.69022 1.69161
1.69299 1.69437 1.69574 1.69712 1.69849 1.69987 1.70124 1.70261 1.70396
1.70532 1.70668 1.70803 1.70939 1.71075 1.71209 1.71343 1.71477 1.71611
1.71745 1.71879 1.72012 1.72145 1.72277 1.72409 1.72541 1.72673 1.72805
1.72937 1.73067 1.73197 1.73327 1.73458 1.73588 1.73718 1.73847 1.73976
1.74104 1.74233 1.74361 1.74489 1.74618 1.74745 1.74871 1.74998 1.75125
1.75251 1.75378 1.75504 1.75629 1.75754 1.75878 1.76003 1.76128 1.76252
1.76377 1.765 1.76622 1.76745 1.76868 1.76991 1.77113 1.77236 1.77356
1.77477 1.77598 1.77719 1.7784 1.77961 1.78081 1.782 1.78318 1.78437
1.78556 1.78675 1.78794 1.78912 1.79029 1.79146 1.79263 1.7938 1.79497
1.79614 1.79729 1.79844 1.79959 1.80074 1.80189 1.80304 1.80419 1.80532
1.80645 1.80758 1.80871 1.80985 1.81098 1.8121 1.81321 1.81432 1.81543
1.81654 1.81766 1.81877 1.81987 1.82096 1.82205 1.82314 1.82423 1.82532
1.82642 1.82749 1.82856 1.82963 1.83071 1.83178 1.83285 1.83392 1.83497
1.83602 1.83707 1.83812 1.83918 1.84023 1.84127 1.84231 1.84334 1.84437
1.8454 1.84643 1.84746 1.84848 1.84949 1.8505 1.85152 1.85253 1.85354
1.85455 1.85555 1.85654 1.85753 1.85852 1.85951 1.8605 1.86149 1.86246
1.86343 1.8644 1.86537 1.86634 1.86731 1.86828 1.86923 1.87018 1.87113
1.87208 1.87303 1.87398 1.87492 1.87585 1.87677 1.8777 1.87863 1.87956
1.88049 1.88141 1.88231 1.88322 1.88413 1.88504 1.88595 1.88685 1.88775
1.88863 1.88952 1.89041 1.89129 1.89218 1.89307 1.89393 1.8948 1.89567
1.89653 1.8974 1.89826 1.89912 1.89997 1.90081 1.90166 1.9025 1.90335
1.90419 1.90503 1.90585 1.90668 1.9075 1.90832 1.90915 1.90997 1.91078
1.91158 1.91239 1.91319 1.91399 1.91479 1.9156 1.91638 1.91716 1.91794
1.91872 1.91951 1.92029 1.92107 1.92182 1.92258 1.92334 1.9241 1.92486
1.92562 1.92638 1.92712 1.92785 1.92859 1.92933 1.93007 1.93081 1.93153
1.93225 1.93297 1.93368 1.9344 1.93512 1.93583 1.93653 1.93723 1.93793
1.93862 1.93932 1.94001 1.94071 1.94138 1.94205 1.94273 1.9434 1.94407
1.94475 1.94542 1.94607 1.94672 1.94737 1.94802 1.94868 1.94933 1.94997
1.9506 1.95123 1.95186 1.95249 1.95312 1.95375 1.95437 1.95497 1.95558
1.95619 1.9568 1.95741 1.95802 1.95861 1.95919 1.95978 1.96036 1.96095
1.96154 1.96212 1.96269 1.96325 1.96381 1.96438 1.96494 1.96551 1.96607
1.96661 1.96715 1.96769 1.96824 1.96878 1.96932 1.96985 1.97037 1.97089
1.97141 1.97193 1.97245 1.97297 1.97348 1.97398 1.97448 1.97497 1.97547
1.97597 1.97647 1.97695 1.97742 1.9779 1.97838 1.97885 1.97933 1.9798
1.98026 1.98071 1.98116 1.98162 1.98207 1.98253 1.98297 1.9834 1.98384
1.98427 1.9847 1.98513 1.98557 1.98598 1.98639 1.9868 1.98721 1.98762
1.98803 1.98844 1.98884 1.98922 1.98961 1.99 1.99039 1.99077 1.99116
1.99153 1.99189 1.99226 1.99262 1.99299 1.99336 1.99372 1.99406 1.9944
1.99475 1.99509 1.99543 1.99578 1.99611 1.99643 1.99675 1.99707 1.99739
1.99772 1.99804 1.99834 1.99864 1.99894 1.99924 1.99954 1.99984 1.00014
1.00042 1.00069 1.00097 1.00125 1.00152 1.0018 1.00207 1.00233 1.00258
1.00284 1.00309 1.00335 1.0036 1.00385 1.00408 1.00431 1.00455 1.00478
1.00501 1.00524 1.00546 1.00567 1.00588 1.00609 1.0063 1.00652 1.00673
1.00692 1.00711 1.00729 1.00748 1.00767 1.00786 1.00805 1.00821 1.00838
1.00854 1.00871 1.00888 1.00904 1.0092 1.00935 1.00949 1.00963 1.00978
1.00992 1.01007 1.0102 1.01032 1.01044 1.01057 1.01069 1.01081 1.01093
1.01104 1.01114 1.01124 1.01134 1.01144 1.01154 1.01164 1.01172 1.01179
1.01187 1.01195 1.01203 1.0121 1.01218 1.01223 1.01229 1.01234 1.0124
1.01246 1.01251 1.01256 1.01259 1.01263 1.01266 1.01269 1.01273 1.01276
1.01278 1.01279 1.01281 1.01282 1.01283 1.01284 1.01285 1.01285 1.01284
1.01283 1.01282 1.0128 1.01279 1.01278 1.01275 1.01272 1.01269 1.01266
1.01262 1.01259 1.01255 1.0125 1.01245 1.01239 1.01234 1.01228 1.01223
1.01217 1.01209 1.01202 1.01194 1.01186 1.01179 1.01171 1.01162 1.01152
1.01143 1.01133 1.01123 1.01113 1.01104 1.01092 1.0108 1.01068 1.01056
1.01044 1.01032 1.0102 1.01006 1.00992 1.00978 1.00964 1.0095 1.00936
1.00921 1.00905 1.00889 1.00872 1.00856 1.0084 1.00824 1.00806 1.00788
1.0077 1.00751 1.00733 1.00714 1.00696 1.00676 1.00656 1.00635 1.00615
1.00594 1.00574 1.00553 1.0053 1.00508 1.00485 1.00462 1.0044 1.00417
1.00394 1.00369 1.00345 1.0032 1.00295 1.0027 1.00245 1.0022 1.00193
1.00166 1.00139 1.00112 1.00085 1.00058 1.0003 1.00001 0.999723 0.999433
0.999143 0.998853 0.998563 0.998256 0.997945 0.997634 0.997322 0.997011
0.9967 0.996389 0.996057 0.995725 0.995393 0.995061 0.994729 0.994397
0.99406 0.993707 0.993354 0.993001 0.992648 0.992295 0.991943 0.99158
0.991207 0.990833 0.99046 0.990086 0.989713 0.989339 0.988952 0.988557
0.988163 0.987769 0.987375 0.986981 0.986586 0.986174 0.985759 0.985345
0.98493 0.98493 0.98493 0.98493 0.98493 0.98493 0.98493 0.98493 0.98493
0.98493 0.98493 0.98493 0.98493 0.98493 0.98493 0.98493 0.98493 0.98493
0.98493 0.98493 0.98493 0.98493 0.98493 0.98493 0.98493 0.98493 0.98493
0.98493 0.98493 0.98493 0.98493 0.98493 0.98493 0.98493 0.98493 0.98493
0.98493 0.98493 0.98493 0.98493 0.98493 0.98493 0.98493 0.98493 0.98493
0.98493 0.98493 0.98493 0.98493 0.98493 0.98493 0.98493 0.98493 0.98493
0.98493 0.98493 0.98493 0.98493 0.98493 0.98493 0.98493 0.98493 0.98493
0.98493 0.98493 0.98493 0.98493 0.98493 0.98493 0.98493 0.98493 0.98493
0.98493 0.98493 0.98493 0.98493 0.98493 0.98493 0.98493 0.98493 0.98493
0.98493 0.98493 0.98493 0.98493 0.98493 0.98493 0.98493 0.98493 0.98493
0.98493 0.98493 0.98493 0.98493 0.98493 0.98493 0.98493 0.98493 0.98493
0.98493 0.98493 0.98493 0.98493 0.98493 0.98493 0.98493 0.98493 0.98493
0.98493 0.98493 0.98493 0.98493 0.98493 0.98493 0.98493 0.98493 0.98493
0.98493 0.98493 0.98493 0.98493 0.98493 0.98493 0.98493 0.98493 0.98493
0.98493 0.98493 0.98493 0.98493 0.98493 0.98493 0.98493 0.98493 0.98493
0.98493 0.98493 0.98493 0.98493 0.98493 0.98493 0.98493 0.98493 0.98493
0.98493 0.98493 0.98493 0.98493 0.98493 0.98493 0.98493 0.98493 0.98493
0.98493 0.98493 0.98493 0.98493 0.98493 0.98493 0.98493 0.98493 0.98493
0.98493 0.98493 0.98493 0.98493 0.98493 0.98493 0.98493 0.98493 0.98493
0.98493 0.98493 0.98493 0.98493 0.98493 0.98493 0.98493 0.98493 0.98493
0.98493 0.98493 0.98493 0.98493 0.98493 0.98493 0.98493 0.98493 0.98493
0.98493 0.98493 0.98493 0.98493 0.98493 0.98493 0.98493 0.98493 0.98493
0.98493 0.98493 0.98493 0.98493 0.98493 0.98493 0.98493 0.98493 0.98493
0.98493 0.98493 0.98493 0.98493 0.98493 0.98493 0.98493 0.98493 0.98493
0.98493 0.98493 0.98493 0.98493 0.98493 0.98493 0.98493 0.98493 0.98493
0.98493 0.98493 0.98493 0.98493 0.98493 0.98493 0.98493;
#X coords 0 -1 1000 1.7 200 100 2 0 0;
#X restore 107 153 graph;
#X obj 286 541 metro 24;
#X obj 267 398 /;
#X msg 440 429 10;
#X msg 480 428 5;
#X msg 534 432 2.5;
#X msg 592 432 1.125;
#X obj 260 428 +;
#X msg 500 478 0;
#X floatatom 502 519 5 0 0 0 - - -;
#X msg 540 478 12.7;
#X msg 594 482 38.1;
#X msg 652 482 88.9;
#X obj 200 357 / 127;
#X floatatom 200 383 5 0 0 0 - - -;
#X msg 341 501 24;
#X msg 744 404 0;
#X msg 798 407 1;
#X msg 852 407 2;
#X msg 911 407 3;
#X obj 437 348 moses 23;
#X obj 508 349 moses 66;
#X obj 580 347 moses 109;
#X obj 436 283 inlet;
#X obj 298 720 outlet~;
#X obj 670 721 outlet;
#X connect 0 0 2 0;
#X connect 2 0 13 0;
#X connect 2 0 24 0;
#X connect 4 0 3 0;
#X connect 4 0 35 0;
#X connect 5 0 31 0;
#X connect 6 0 12 0;
#X connect 6 0 9 0;
#X connect 6 0 4 0;
#X connect 7 0 8 0;
#X connect 7 0 13 1;
#X connect 8 0 2 0;
#X connect 9 0 3 0;
#X connect 9 0 35 0;
#X connect 10 0 36 0;
#X connect 12 0 3 0;
#X connect 13 0 18 0;
#X connect 14 0 7 0;
#X connect 15 0 7 0;
#X connect 16 0 7 0;
#X connect 17 0 7 0;
#X connect 18 0 6 0;
#X connect 19 0 20 0;
#X connect 20 0 8 0;
#X connect 20 0 18 1;
#X connect 21 0 20 0;
#X connect 22 0 20 0;
#X connect 23 0 20 0;
#X connect 24 0 25 0;
#X connect 26 0 12 1;
#X connect 26 0 9 1;
#X connect 27 0 10 0;
#X connect 28 0 10 0;
#X connect 29 0 10 0;
#X connect 30 0 10 0;
#X connect 31 0 14 0;
#X connect 31 0 27 0;
#X connect 31 0 19 0;
#X connect 31 1 32 0;
#X connect 32 0 15 0;
#X connect 32 0 28 0;
#X connect 32 0 21 0;
#X connect 32 1 33 0;
#X connect 33 0 16 0;
#X connect 33 0 29 0;
#X connect 33 0 22 0;
#X connect 33 1 17 0;
#X connect 33 1 30 0;
#X connect 33 1 23 0;
#X connect 34 0 5 0;
#X coords 0 -1 1 1 214 160 2 100 100;
#X restore 284 192 pd;
#X obj 280 383 dac~;
#N canvas -947 155 851 743 (subpatch) 0;
#X obj 368 600 noteout;
#X obj 361 343 bng 15 250 50 0 empty empty empty 17 7 0 10 -262144
-1 -1;
#X floatatom 334 439 15 0 0 0 - - -;
#X obj 534 348 bng 15 250 50 0 empty empty empty 17 7 0 10 -262144
-1 -1;
#X floatatom 507 444 15 0 0 0 - - -;
#X msg 379 482 127;
#X msg 432 477 0;
#X obj 360 307 metro 2 200 permin;
#X obj 526 277 delay 1 200 permin;
#X obj 535 313 metro 2 200 permin;
#X obj 335 381 timer 200 permin;
#X obj 508 386 timer 200 permin;
#X obj 341 191 inlet;
#X obj 101 104 cnv 25 112 25 empty empty LED_Blink 20 12 0 12 -233017
-66577 0;
#X floatatom 172 135 5 1 16 0 - - -;
#X floatatom 105 135 5 0 127 0 - - -;
#X msg 344 534 bang;
#X msg 448 551 bang;
#X obj 422 240 sel 1;
#X obj 485 213 sel 0;
#X connect 1 0 10 1;
#X connect 2 0 5 0;
#X connect 2 0 16 0;
#X connect 2 0 17 0;
#X connect 3 0 11 1;
#X connect 4 0 6 0;
#X connect 4 0 16 0;
#X connect 4 0 17 0;
#X connect 5 0 0 1;
#X connect 6 0 0 1;
#X connect 7 0 1 0;
#X connect 8 0 9 0;
#X connect 9 0 3 0;
#X connect 10 0 2 0;
#X connect 11 0 4 0;
#X connect 12 0 7 0;
#X connect 12 0 10 0;
#X connect 12 0 11 0;
#X connect 12 0 18 0;
#X connect 12 0 19 0;
#X connect 14 0 0 2;
#X connect 15 0 0 0;
#X connect 16 0 15 0;
#X connect 17 0 14 0;
#X connect 18 1 9 0;
#X connect 19 1 8 0;
#X coords 0 -1 1 1 114 60 2 100 100;
#X restore 470 603 pd;
#X msg 410 563 1;
#X msg 489 545 0;
#N canvas 14 210 502 537 (subpatch) 0;
#X obj 101 104 cnv 25 132 25 empty empty Notepress 20 12 0 12 -233017
-66577 0;
#X floatatom 105 135 5 0 127 0 - - -;
#X floatatom 148 135 5 1 16 0 - - -;
#X floatatom 191 135 5 0 5000 0 - - -;
#X obj 120 439 outlet;
#X obj 358 140 notein;
#X floatatom 315 195 5 0 0 0 - - -;
#X floatatom 369 199 5 0 0 0 - - -;
#X floatatom 426 197 5 0 0 0 - - -;
#X floatatom 62 257 5 0 0 0 - - -;
#X obj 117 190 ==;
#X msg 248 192 bang;
#X floatatom 145 309 5 0 0 0 - - -;
#X obj 170 262 == 127;
#X obj 91 312 ==;
#X obj 222 427 bng 15 250 50 0 empty empty empty 17 7 0 10 -262144
-1 -1;
#X floatatom 223 458 5 0 0 0 - - -;
#X obj 230 392 spigot 0;
#X obj 386 265 ==;
#X obj 97 224 delay 1;
#X connect 1 0 10 0;
#X connect 1 0 18 0;
#X connect 5 0 6 0;
#X connect 5 0 10 1;
#X connect 5 0 11 0;
#X connect 5 1 7 0;
#X connect 5 2 8 0;
#X connect 6 0 18 1;
#X connect 7 0 13 0;
#X connect 9 0 14 0;
#X connect 10 0 19 0;
#X connect 11 0 1 0;
#X connect 12 0 14 1;
#X connect 13 0 12 0;
#X connect 14 0 17 0;
#X connect 15 0 16 0;
#X connect 17 0 15 0;
#X connect 17 0 4 0;
#X connect 18 0 17 1;
#X connect 19 0 9 0;
#X coords 0 -1 1 1 134 60 2 100 100;
#X restore 97 444 pd;
#X floatatom 112 626 5 0 0 0 - - -;
#X obj 111 705 bng 15 250 50 0 empty empty empty 17 7 0 10 -262144
-1 -1;
#N canvas 14 210 502 537 (subpatch) 0;
#X obj 101 104 cnv 25 132 25 empty empty Notepress 20 12 0 12 -233017
-66577 0;
#X floatatom 105 135 5 0 127 0 - - -;
#X floatatom 148 135 5 1 16 0 - - -;
#X floatatom 191 135 5 0 5000 0 - - -;
#X obj 120 439 outlet;
#X obj 358 140 notein;
#X floatatom 315 195 5 0 0 0 - - -;
#X floatatom 369 199 5 0 0 0 - - -;
#X floatatom 426 197 5 0 0 0 - - -;
#X floatatom 62 257 5 0 0 0 - - -;
#X obj 117 190 ==;
#X msg 248 192 bang;
#X floatatom 145 309 5 0 0 0 - - -;
#X obj 170 262 == 127;
#X obj 91 312 ==;
#X obj 222 427 bng 15 250 50 0 empty empty empty 17 7 0 10 -262144
-1 -1;
#X floatatom 223 458 5 0 0 0 - - -;
#X obj 230 392 spigot 0;
#X obj 386 265 ==;
#X obj 97 224 delay 1;
#X connect 1 0 10 0;
#X connect 1 0 18 0;
#X connect 5 0 6 0;
#X connect 5 0 10 1;
#X connect 5 0 11 0;
#X connect 5 1 7 0;
#X connect 5 2 8 0;
#X connect 6 0 18 1;
#X connect 7 0 13 0;
#X connect 9 0 14 0;
#X connect 10 0 19 0;
#X connect 11 0 1 0;
#X connect 12 0 14 1;
#X connect 13 0 12 0;
#X connect 14 0 17 0;
#X connect 15 0 16 0;
#X connect 17 0 15 0;
#X connect 17 0 4 0;
#X connect 18 0 17 1;
#X connect 19 0 9 0;
#X coords 0 -1 1 1 134 60 2 100 100;
#X restore 689 467 pd;
#N canvas -947 155 851 743 (subpatch) 0;
#X obj 368 600 noteout;
#X obj 361 343 bng 15 250 50 0 empty empty empty 17 7 0 10 -262144
-1 -1;
#X floatatom 334 439 15 0 0 0 - - -;
#X obj 534 348 bng 15 250 50 0 empty empty empty 17 7 0 10 -262144
-1 -1;
#X floatatom 507 444 15 0 0 0 - - -;
#X msg 379 482 127;
#X msg 432 477 0;
#X obj 360 307 metro 2 200 permin;
#X obj 526 277 delay 1 200 permin;
#X obj 535 313 metro 2 200 permin;
#X obj 335 381 timer 200 permin;
#X obj 508 386 timer 200 permin;
#X obj 341 191 inlet;
#X obj 101 104 cnv 25 112 25 empty empty LED_Blink 20 12 0 12 -233017
-66577 0;
#X floatatom 172 135 5 1 16 0 - - -;
#X floatatom 105 135 5 0 127 0 - - -;
#X msg 344 534 bang;
#X msg 448 551 bang;
#X obj 422 240 sel 1;
#X obj 485 213 sel 0;
#X connect 1 0 10 1;
#X connect 2 0 5 0;
#X connect 2 0 16 0;
#X connect 2 0 17 0;
#X connect 3 0 11 1;
#X connect 4 0 6 0;
#X connect 4 0 16 0;
#X connect 4 0 17 0;
#X connect 5 0 0 1;
#X connect 6 0 0 1;
#X connect 7 0 1 0;
#X connect 8 0 9 0;
#X connect 9 0 3 0;
#X connect 10 0 2 0;
#X connect 11 0 4 0;
#X connect 12 0 7 0;
#X connect 12 0 10 0;
#X connect 12 0 11 0;
#X connect 12 0 18 0;
#X connect 12 0 19 0;
#X connect 14 0 0 2;
#X connect 15 0 0 0;
#X connect 16 0 15 0;
#X connect 17 0 14 0;
#X connect 18 1 9 0;
#X connect 19 1 8 0;
#X coords 0 -1 1 1 114 60 2 100 100;
#X restore 688 598 pd;
#X connect 0 0 1 0;
#X connect 0 1 2 0;
#X connect 0 2 3 0;
#X connect 4 0 6 0;
#X connect 4 1 5 0;
#X connect 4 2 7 0;
#X connect 8 0 10 0;
#X connect 8 0 12 0;
#X connect 9 0 12 1;
#X connect 12 0 13 0;
#X connect 12 0 13 1;
#X connect 12 1 11 0;
#X connect 15 0 14 0;
#X connect 16 0 14 0;
#X connect 16 0 21 0;
#X connect 17 0 18 0;
#X connect 17 0 15 0;
#X connect 18 0 19 0;
#X connect 20 0 21 0;
